<?xml version="1.0" encoding="UTF-8"?>
<svg width="250px" height="50px" viewBox="0 0 250 50" version="1.1" xmlns="http://www.w3.org/2000/svg" xmlns:xlink="http://www.w3.org/1999/xlink">
    <!-- Generator: Sketch 58 (84663) - https://sketch.com -->
    <title>Logo Dark</title>
    <desc>Created with Sketch.</desc>
    <g id="Logo-Dark" stroke="none" stroke-width="1" fill="none" fill-rule="evenodd">
        <g id="TR-Logo-600x120" fill-rule="nonzero">
            <path d="M67.6663702,11.0100014 L67.6663702,12.6263767 C67.6663702,13.4531672 67.3695591,13.7466778 66.5492064,13.7466778 L60.88094,13.7466778 L60.88094,32.1923734 C60.88094,33.0191639 60.5841289,33.3126745 59.7637762,33.3126745 L57.8551163,33.3126745 C57.0306412,33.3126745 56.7379525,33.01503 56.7379525,32.1923734 L56.7379525,13.7508118 L51.0861756,13.7508118 C50.2328439,13.7508118 49.9690118,13.4531672 49.9690118,12.6305107 L49.9690118,11.0100014 C49.9690118,10.1832109 50.2328439,9.88970026 51.0861756,9.88970026 L66.5492064,9.88970026 C67.3736815,9.88970026 67.6663702,10.1873448 67.6663702,11.0100014 Z" id="Path" fill="#455962"></path>
            <path d="M73.5564815,9.87202571 L73.5564815,16.1692661 C73.8525733,16.0035493 75.5592134,15.7052589 77.4961471,15.7052589 C82.1883792,15.7052589 84.3227075,18.1537254 84.3227075,22.333933 L84.3227075,32.2769442 C84.3227075,33.0392417 84.0595148,33.3002458 83.3069482,33.3002458 L81.5345099,33.3002458 C80.7778309,33.3002458 80.5187506,33.0350988 80.5187506,32.2769442 L80.5187506,22.4375061 C80.5187506,20.3204733 79.2850349,19.1977416 76.940975,19.1977416 C75.7947492,19.1756754 74.6527214,19.3436327 73.5605939,19.6948922 L73.5605939,32.289373 C73.5605939,33.0516705 73.3303003,33.3126745 72.5777337,33.3126745 L70.7641716,33.3126745 C70.0074926,33.3126745 69.7484123,33.0475276 69.7484123,32.289373 L69.7484123,9.87202571 C69.7484123,9.10972818 70.011605,8.84867918 70.7641716,8.84867918 L72.5736214,8.84867918 C73.3261879,8.84458122 73.5564815,9.12629987 73.5564815,9.87202571 Z" id="Path" fill="#455962"></path>
            <path d="M94.4562556,15.6153162 C99.3784748,15.6153162 102.020066,18.1417604 102.020066,22.2748068 L102.020066,27.1736945 C102.020066,31.2942543 99.3702711,33.8331851 94.4562556,33.8331851 C89.6119715,33.8331851 86.9252602,31.3067409 86.9252602,27.1736945 L86.9252602,22.258158 C86.9252602,18.1375982 89.6119715,15.6153162 94.4562556,15.6153162 Z M94.4562556,19.1032244 C92.0648774,19.1032244 90.7235727,20.2311756 90.7235727,22.258158 L90.7235727,27.1736945 C90.7235727,29.1673795 92.0648774,30.3286282 94.4562556,30.3286282 C96.8476338,30.3286282 98.2217533,29.1673795 98.2217533,27.1736945 L98.2217533,22.258158 C98.2217533,20.2311756 96.8804486,19.1032244 94.4562556,19.1032244 L94.4562556,19.1032244 Z" id="Shape" fill="#455962"></path>
            <path d="M119.196914,17.13124 L119.196914,30.8091396 C119.196914,31.8366461 118.966555,32.2360008 117.917601,32.6686351 C115.870319,33.4828478 113.683409,33.8773683 111.484014,33.8292598 C106.790457,33.8292598 104.622619,31.3332927 104.622619,27.1733476 L104.622619,17.13124 C104.622619,16.3658101 104.885885,16.1370131 105.638664,16.1370131 L107.444511,16.1370131 C108.201404,16.1370131 108.427649,16.36997 108.427649,17.13124 L108.427649,27.0235895 C108.427649,29.2491602 109.608237,30.3099462 112.006434,30.3099462 C113.028067,30.3294693 114.046544,30.1891472 115.025778,29.8939517 C115.27188,29.8269098 115.428138,29.5826956 115.38777,29.3281991 L115.38777,17.13124 C115.38777,16.3658101 115.651037,16.1370131 116.403816,16.1370131 L118.176754,16.1370131 C118.954214,16.1162134 119.196914,16.3658101 119.196914,17.13124 Z" id="Path" fill="#455962"></path>
            <path d="M129.195716,15.6153162 C131.853032,15.6153162 133.987935,16.1149247 135.139713,16.6436771 C136.188654,17.1432857 136.373761,17.4097436 136.373761,18.4714117 L136.373761,33.8760087 C136.373761,38.2267665 134.317015,41.1203326 129.150467,41.1203326 C125.604636,41.1203326 123.502641,39.8713113 122.354976,37.9311647 C121.861357,37.1984055 121.992989,36.6821434 122.766326,36.2658029 L124.000374,35.5663509 C124.790164,35.1500105 125.148038,35.2665858 125.674566,35.9826914 C126.365632,37.0776668 127.319963,37.6771971 129.088765,37.6771971 C131.388208,37.6771971 132.56878,36.4281757 132.56878,34.0883423 L132.56878,32.4229805 C131.287057,32.7977607 129.961997,32.9993514 128.628054,33.0225107 C123.934558,33.0225107 121.799655,30.524468 121.799655,26.3610634 L121.799655,22.6139993 C121.774974,18.0717249 124.17314,15.6153162 129.195716,15.6153162 Z M129.458979,19.1375565 C126.830457,19.1375565 125.596409,20.2575123 125.596409,22.7222478 L125.596409,26.2444881 C125.596409,28.3261904 126.830457,29.5002705 129.175148,29.5002705 C130.316826,29.4851146 131.452374,29.3285154 132.55644,29.0339692 L132.55644,19.8994595 C132.55644,19.6663089 132.490624,19.5996944 132.260268,19.483119 C131.345278,19.2453814 130.403602,19.1292177 129.458979,19.1375565 L129.458979,19.1375565 Z" id="Shape" fill="#455962"></path>
            <path d="M142.778304,9.87202571 L142.778304,16.1692661 C143.074563,16.0035493 144.782167,15.7052589 146.720194,15.7052589 C151.415076,15.7052589 153.550609,18.1537254 153.550609,22.333933 L153.550609,32.2769442 C153.550609,33.0392417 153.287268,33.3002458 152.534276,33.3002458 L150.760837,33.3002458 C150.003731,33.3002458 149.744505,33.0350988 149.744505,32.2769442 L149.744505,22.4375061 C149.744505,20.3204733 148.510092,19.1977416 146.164709,19.1977416 C145.017836,19.1756754 143.875163,19.3436327 142.782419,19.6948922 L142.782419,32.289373 C142.782419,33.0516705 142.551995,33.3126745 141.799004,33.3126745 L139.992647,33.3126745 C139.235541,33.3126745 138.976314,33.0475276 138.976314,32.289373 L138.976314,9.87202571 C138.976314,9.10972818 139.239655,8.84867918 139.992647,8.84867918 L141.799004,8.84867918 C142.551995,8.84458122 142.778304,9.12629987 142.778304,9.87202571 Z" id="Path" fill="#455962"></path>
            <path d="M162.266038,12.9773797 L162.266038,15.9816687 L166.055354,15.9816687 C166.821546,15.9816687 167.083883,16.2172992 167.083883,16.987306 L167.083883,18.5315274 C167.083883,19.3057419 166.817382,19.5708262 166.055354,19.5708262 L162.266038,19.5708262 L162.266038,26.3031263 C162.266038,29.593538 163.227941,30.1657835 166.013714,30.1657835 C166.813218,30.1657835 167.075555,30.401414 167.075555,31.2050824 L167.075555,32.7493037 C167.075555,33.5571797 166.809054,33.7886026 166.013714,33.8222641 C160.529615,33.9905716 158.401767,32.2443812 158.401767,26.4335647 L158.401767,19.5918646 L156.107357,19.5918646 C155.341166,19.5918646 155.112141,19.3225726 155.112141,18.5525658 L155.112141,17.0083445 C155.112141,16.2341299 155.34533,16.0027071 156.107357,16.0027071 L158.401767,16.0027071 L158.401767,12.9773797 C158.401767,12.2031652 158.668269,11.9717424 159.430296,11.9717424 L161.225017,11.9717424 C162.016193,11.9717424 162.266038,12.1947499 162.266038,12.9773797 Z" id="Path" fill="#455962"></path>
            <path d="M187.391358,17.1489207 C187.391358,20.5801012 185.773545,22.8909806 183.030295,23.8128519 C183.476279,24.2075838 183.835534,24.6903872 184.085391,25.2307976 L187.718231,32.1923734 C188.049242,32.8207342 187.983039,33.3126745 187.155513,33.3126745 L185.23979,33.3126745 C183.820583,33.3126745 183.390269,33.1473165 182.993057,32.3246599 L180.220844,26.7148865 C179.360217,24.9000814 178.565792,24.4040071 176.290095,24.4040071 L173.844755,24.4040071 L173.844755,32.1923734 C173.844755,33.0191639 173.546846,33.3126745 172.723457,33.3126745 L170.840835,33.3126745 C169.980208,33.3126745 169.686436,33.01503 169.686436,32.1923734 L169.686436,11.0100014 C169.686436,10.1832109 169.984345,9.88970026 170.840835,9.88970026 L179.943623,9.88970026 C184.548806,9.88970026 187.391358,12.5933051 187.391358,17.1489207 Z M179.567098,13.7508118 L173.848893,13.7508118 L173.848893,20.5470295 L179.562961,20.5470295 C181.776593,20.5470295 183.030295,19.3605852 183.030295,17.1489207 C183.030295,14.9372561 181.809694,13.7508118 179.562961,13.7508118 L179.567098,13.7508118 Z" id="Shape" fill="#3698D4"></path>
            <path d="M194.150431,11.9081672 L194.150431,12.2115693 C194.150431,13.7580774 193.665295,14.2637476 192.181588,14.2637476 L191.955191,14.2637476 C190.471483,14.2637476 189.986347,13.7580774 189.986347,12.2115693 L189.986347,11.9081672 C189.986347,10.3616591 190.471483,9.88970026 191.955191,9.88970026 L192.181588,9.88970026 C193.665295,9.88970026 194.150431,10.3616591 194.150431,11.9081672 Z M193.956377,17.4241865 L193.956377,32.7923472 C193.956377,33.5677082 193.697638,33.8331851 192.957805,33.8331851 L191.183016,33.8331851 C190.439141,33.8331851 190.216787,33.5634943 190.216787,32.7923472 L190.216787,17.4241865 C190.216787,16.6488255 190.443183,16.41706 191.183016,16.41706 L192.957805,16.41706 C193.697638,16.3959904 193.956377,16.6488255 193.956377,17.4241865 Z" id="Shape" fill="#3698D4"></path>
            <path d="M212.723754,17.2932889 L206.514246,32.3747798 C206.354988,32.9936003 205.745872,33.3930402 205.104906,33.2989822 L203.998469,33.2989822 C203.224384,33.2989822 202.858377,33.1000507 202.58913,32.3747798 L196.404863,17.3264442 C196.034649,16.3690866 196.236584,16.1369999 197.24626,16.1369999 L198.554632,16.1369999 C199.816727,16.1369999 200.132251,16.3359313 200.401498,17.160668 L203.52308,25.0972041 C203.93528,26.2491899 204.24909,27.433079 204.461238,28.6365262 L204.629517,28.6365262 C204.864209,27.4520572 205.166184,26.2814949 205.534019,25.1303593 L208.621945,17.160668 C208.958503,16.3317869 209.22775,16.1369999 210.502467,16.1369999 L211.844494,16.1369999 C212.858378,16.1162778 213.093969,16.3649422 212.723754,17.2932889 Z" id="Path" fill="#3698D4"></path>
            <path d="M221.483407,15.6153162 C226.673115,15.6153162 229.024638,18.6703575 229.024638,22.4912402 L229.024638,24.5182227 C229.024638,25.3839564 228.697469,25.9458509 227.55647,25.9458509 L217.700523,25.9458509 L217.700523,27.1945054 C217.700523,29.3546777 219.037823,30.5242507 221.422063,30.5242507 C223.348267,30.5242507 224.587417,29.8583017 225.27447,28.7636479 C225.79794,28.0311039 226.153735,27.9312116 226.938939,28.3474297 L228.079939,28.9800813 C228.832426,29.3463533 228.926487,29.9082478 228.488899,30.644954 C227.315183,32.6053415 225.127244,33.8331851 221.438421,33.8331851 C216.085129,33.8331851 213.929832,30.8114412 213.929832,26.7241789 L213.929832,22.7867551 C213.913549,18.1750579 216.555433,15.6153162 221.483407,15.6153162 Z M221.483407,18.8701422 C219.029644,18.8701422 217.696433,20.1187967 217.696433,22.258158 L217.696433,22.990702 L225.237664,22.990702 L225.237664,22.258158 C225.237664,20.0979858 223.961707,18.8701422 221.483407,18.8701422 Z" id="Shape" fill="#3698D4"></path>
            <path d="M239.988896,15.6153162 C240.73941,15.6153162 240.99638,15.8483404 240.99638,16.6431195 L240.99638,18.1036821 C240.99638,18.8693332 240.735332,19.1314854 239.988896,19.1314854 L238.818257,19.1314854 C237.77299,19.1103784 236.730605,19.2506698 235.726466,19.5476001 C235.432786,19.6141785 235.400155,19.7806244 235.400155,19.9637149 L235.400155,32.2848712 C235.400155,33.0505223 235.171738,33.3126745 234.425303,33.3126745 L232.634674,33.3126745 C231.88416,33.3126745 231.62719,33.0463611 231.62719,32.2848712 L231.62719,18.5031522 C231.62719,17.4420597 231.855608,17.0425896 232.895722,16.6098303 C234.119387,16.1437819 236.052776,15.6818945 238.948782,15.6153162 L239.988896,15.6153162 Z" id="Path" fill="#3698D4"></path>
            <path d="M37.8035904,49.9690118 C37.8035904,49.9690118 35.4996575,37.4329139 25.5050165,25.9838331 L36.6926192,2.6025527 C43.0632805,12.4690032 44.5883037,23.0601318 44.1824508,29.3281808 C44.1824508,29.3281808 43.8544888,35.2422203 37.8035904,49.9690118 Z" id="Path" fill="#3698D4"></path>
            <path d="M32.6109012,6.19318876 L22.7350664,26.7225403 L23.6977528,27.8211289 C28.4037677,33.241889 32.0227909,39.534883 34.3536956,46.3503782 L33.3785607,49.9690118 C33.3785607,49.9690118 26.7642411,32.6515646 13.0127635,22.0598281 L27.3659201,0 C29.2758879,1.9188182 31.0298809,3.98990473 32.6109012,6.19318876 Z" id="Path" fill="#455962"></path>
            <path d="M10.1613611,22.620986 L11.7747364,23.8792929 C20.4429996,30.5609031 26.2204592,40.157591 29.1485902,45.9164427 L28.2029615,48.9279907 C25.664695,44.4861671 19.3563561,31.7311286 0,22.1721898 L16.3660127,1.04102108 C18.1485885,2.3320524 19.8508973,3.73281973 21.4632832,5.23537771 L10.1613611,22.620986 Z" id="Path" fill="#3698D4"></path>
            <path d="M245.327126,15.8640708 L245.327126,16.0781585 C245.327126,16.2922462 245.284235,16.3228301 245.086937,16.3228301 L244.057558,16.3228301 L244.057558,18.9836344 C244.057558,19.1846147 244.0018,19.228306 243.787346,19.228306 L243.577181,19.228306 C243.39275,19.228306 243.324125,19.1846147 243.324125,18.9836344 L243.324125,16.3403067 L242.264722,16.3403067 C242.037401,16.3403067 242.037401,16.3097227 242.037401,16.095635 L242.037401,15.8640708 C242.037401,15.6499831 242.037401,15.6193991 242.264722,15.6193991 L245.091226,15.6193991 C245.284235,15.6412448 245.327126,15.6412448 245.327126,15.8640708 Z M249.324549,15.8640708 L249.324549,19.0011109 C249.324549,19.2020912 249.294525,19.2457826 249.08436,19.2457826 L248.844172,19.2457826 C248.634007,19.2457826 248.603983,19.2020912 248.603983,19.0011109 L248.603983,17.6903699 C248.603983,17.502497 248.603983,17.2316106 248.646874,16.9432475 C248.561092,17.087429 248.492467,17.2316106 248.406685,17.3452081 L247.82766,18.2190354 C247.741878,18.3501095 247.698987,18.4069083 247.54458,18.4069083 L247.433064,18.4069083 C247.328147,18.4140396 247.228958,18.3575254 247.180008,18.2627268 L246.600983,17.4151143 C246.515201,17.2840402 246.433708,17.1704426 246.360794,17.0393685 C246.360794,17.2840402 246.360794,17.5287118 246.360794,17.7034773 L246.360794,19.0142183 C246.360794,19.2151986 246.360794,19.25889 246.133473,19.25889 L245.893284,19.25889 C245.683119,19.25889 245.653096,19.2151986 245.653096,19.0142183 L245.653096,15.8640708 C245.653096,15.6499831 245.708854,15.6193991 245.923308,15.6193991 L246.05198,15.6193991 C246.179203,15.5967132 246.304031,15.6704284 246.347927,15.7941646 L247.493111,17.5636649 L248.625428,15.8160103 C248.677254,15.7117157 248.780936,15.6446572 248.895641,15.6412448 L249.03718,15.6412448 C249.268791,15.6412448 249.324549,15.6412448 249.324549,15.8640708 Z" id="Shape" fill="#3698D4"></path>
        </g>
    </g>
</svg>