<?xml version="1.0" encoding="utf-8"?>
<!-- Generator: Adobe Illustrator 19.2.1, SVG Export Plug-In . SVG Version: 6.00 Build 0)  -->
<svg version="1.1" id="Layer_1" xmlns="http://www.w3.org/2000/svg" xmlns:xlink="http://www.w3.org/1999/xlink" x="0px" y="0px"
	 width="130.1px" height="34.6px" viewBox="0 0 130.1 34.6" style="enable-background:new 0 0 130.1 34.6;" xml:space="preserve">
<style type="text/css">
	.st0{clip-path:url(#SVGID_2_);}
	.st1{clip-path:url(#SVGID_6_);}
	.st2{opacity:0.78;fill:url(#SVGID_9_);}
	.st3{opacity:0.78;fill:url(#SVGID_10_);}
	.st4{fill:url(#SVGID_11_);}
	.st5{fill:url(#SVGID_12_);}
	.st6{fill:url(#SVGID_13_);}
	.st7{fill:url(#SVGID_14_);}
	.st8{fill:url(#SVGID_15_);}
	.st9{fill:url(#SVGID_16_);}
	.st10{fill:url(#SVGID_19_);}
	.st11{clip-path:url(#XMLID_8_);fill:url(#SVGID_20_);}
	.st12{clip-path:url(#XMLID_9_);fill:url(#SVGID_21_);}
	.st13{opacity:0.4;fill:#00B8D9;}
	.st14{fill:url(#SVGID_22_);}
	.st15{fill:none;stroke:#80BBC9;stroke-width:0.5;stroke-miterlimit:10;}
	.st16{fill:url(#SVGID_23_);}
	.st17{fill:url(#SVGID_24_);}
	.st18{fill:url(#SVGID_29_);}
	.st19{fill:url(#SVGID_30_);}
	.st20{opacity:0.5;fill:url(#SVGID_35_);}
	.st21{fill:url(#SVGID_36_);}
	.st22{opacity:0.71;clip-path:url(#SVGID_38_);fill:url(#SVGID_39_);}
	.st23{opacity:0.71;clip-path:url(#SVGID_41_);fill:url(#SVGID_42_);}
	.st24{opacity:0.71;clip-path:url(#SVGID_44_);fill:url(#SVGID_45_);}
	.st25{fill:url(#SVGID_48_);}
	.st26{fill:url(#SVGID_49_);}
	.st27{fill:url(#SVGID_60_);}
	.st28{fill:url(#SVGID_61_);}
	.st29{opacity:0.78;fill:url(#SVGID_62_);}
	.st30{opacity:0.78;fill:url(#SVGID_63_);}
	.st31{opacity:0.78;fill:url(#SVGID_64_);}
	.st32{opacity:0.78;fill:url(#SVGID_65_);}
	.st33{fill:url(#SVGID_66_);}
	.st34{fill:url(#SVGID_67_);}
	.st35{clip-path:url(#SVGID_69_);}
	.st36{clip-path:url(#SVGID_73_);}
	.st37{opacity:0.5;fill:url(#SVGID_76_);}
	.st38{fill:url(#SVGID_77_);}
	.st39{opacity:0.8;fill:url(#SVGID_78_);}
	.st40{fill:url(#SVGID_89_);}
	.st41{fill:url(#SVGID_90_);}
	.st42{fill:none;}
	.st43{fill:#FFFFFF;}
	.st44{fill:#808080;}
	.st45{fill:#00BCDD;}
	.st46{fill:#00BEDF;}
	.st47{fill:none;stroke:#00BCDD;stroke-miterlimit:10;}
	.st48{fill:#60260E;}
	.st49{fill:#2CC2E0;}
</style>
<g>
	<g>
		<path class="st48" d="M48.7,3.1c-0.8,2.6-1.8,5.7-1.5,9.7c1.2-2.6,2.5-5.4,6.5-5.4c1,0,2.2,0.3,3,1c0.9,0.8,1.7,2.8,0.4,3.7
			c-0.8,0.6-5.4,1.7-5.9,0c-0.6-2.1,2.2-2.4,3.1-3.2c-3.1-0.5-4.7,2-5.7,4.2c4.4,0.2,8.4,1.5,9.1,5.7c-2.4,0.1-4.6-0.1-6.9-0.1v-0.9
			c0.5-0.3,1.3-0.3,1.6-0.9c-0.5-1.8-2.4-2.4-4.7-2.3c0.4,1.8,1,3.3,1.6,4.8c-2-0.7-4.8-1.9-7.2-1.1c0-0.7-0.1-1.6,0.1-2.3
			c0.8-0.2,1.5,0,2.1,0.2C43.5,14,42.9,10,42.8,7c0-0.4,0.1-1,0-1.3c-0.2-0.7-1.2-0.8-1.8-0.9c0-0.3-0.1-0.6-0.1-1
			C43.5,3.6,46.2,3.5,48.7,3.1"/>
		<path class="st49" d="M22.1,3.4c1.8-0.2,5.6,0.2,5.2,2.2c-0.3,1.7-5.8,1.7-6.9,0.5c-0.3-0.3-0.6-1.1-0.5-1.7
			C20.1,3.6,21,3.5,22.1,3.4"/>
		<path class="st48" d="M9.1,4.3c-0.9,1.6-1.6,3.4-1.5,6.1c0.6-1.6,1.3-3.1,2.4-4.4c1-1.2,4.1-3.7,5.6-1.6c2.1,3,0.2,8.4-0.1,12.5
			c-0.1,0.8,0,1.6,0.1,2.2c0.4,0.3,1,0.4,1.6,0.6c0,0.4-0.2,0.7-0.3,1c-2-0.4-3.8-1-5.8-1.5c0.7-1.7,1.4-4.3,1.2-7
			c-0.1-1-0.3-3-1.3-3.1c-0.9-0.1-1.6,1.2-1.9,1.7c-0.5,0.8-1,1.6-1.2,2.5c-0.3,2.3,0.8,4,0.9,5.9c-1.6-0.8-4.9-1.2-6.5-0.4
			c-0.2-0.6,0-1.6-0.2-2.2c0.5-0.4,1.6-0.2,2.2,0c-1.1-3-1.2-7.2-1.2-11.1C3,5,2.1,5.2,1.5,4.9C1.4,4.6,1.3,4,1.4,3.6
			C3.9,4,6.5,4.1,9.1,4.3"/>
		<path class="st48" d="M25.5,7.9c0.2,1.2-0.5,3.8-0.5,5.8c-0.1,2.2,0.3,3.7,2.3,2.8c0.2,0.7,0.2,1.6,0.2,2.5c-3.2-0.7-7-0.3-10,0.3
			c0.1-0.6,0.2-1.1,0.3-1.6c0.5-0.1,1-0.1,1.5-0.4c1.5-0.8,3-7.6-0.4-6.5c-0.1-0.6-0.5-0.9-0.5-1.6C21.1,9.1,23.4,8.6,25.5,7.9"/>
		<path class="st48" d="M38.3,9.7c-2.6-1.4-5.9-0.5-6.1,2.4c-0.1,2,0.6,5,2.1,5.2c1.8,0.2,3.6-0.5,4.7-1.2c0.3-0.2,0.6-0.7,1-0.6
			c-0.6,3-3.2,4.5-7,4.2c-1.5-0.1-3.1-0.6-4-1.6c-1.7-1.8-1.8-6.4-0.1-8.2c2.2-2.3,10.8-2.8,12.5,0.5c0.5,0.9,0.2,2.3-0.1,2.7
			c-0.6,0.8-2.1,1.1-3.3,1c-1.6-0.1-4.7-1.1-3-3.2C35.5,10,37,9.8,38.3,9.7"/>
		<g>
			<path class="st49" d="M118.7,10.5c0-0.9,1.4-0.8,2.3-0.9c1.1-0.1,3.6-0.3,3.7,1.1C124.7,12.3,118.6,11.8,118.7,10.5 M128.3,14
				c0.3-2.9-0.3-4.6-1.9-5.4c-1.2-0.6-3.2-0.9-5.4-0.7c-3.5,0.2-6.3,1.4-6.3,4.7c0,2.3,1.3,4.8,3.2,6c1.8,1.1,6,1.5,8.1,0.1
				c0.7-0.5,1.6-1.4,1.6-2.6c-0.1-2.3-6.5-2.9-6.8-0.9c-0.3,1.9,1.8,2.4,3,2.9c-3.6,1.5-4.9-2.5-4.1-5.7
				C122.5,13,125.4,13.5,128.3,14"/>
			<path class="st49" d="M58.3,2.7c-0.1,0.4-0.1,1,0.1,1.3c0.6,0.2,1.5,0.1,1.8,0.6c0,3.9,0.1,8.1,1.2,11.1c-0.6-0.2-1.6-0.4-2.2,0
				c0.2,0.6,0,1.6,0.2,2.2c1.6-0.8,4.8-0.4,6.5,0.4c-0.1-1.9-1.2-3.6-0.9-5.9c0.1-0.9,0.7-1.7,1.2-2.5c0.3-0.5,1.1-1.8,1.9-1.7
				c1,0.1,1.3,2.1,1.3,3.1c0.2,2.7-0.5,5.3-1.2,7c1.9,0.5,3.8,1.1,5.8,1.5c0.1-0.3,0.3-0.6,0.3-1c-0.5-0.2-1.1-0.3-1.6-0.6
				c-0.1-0.6-0.1-1.4-0.1-2.2c0.3-4,2.2-9.5,0.1-12.5C71.1,1.5,68,4.1,67,5.2c-1.2,1.3-1.8,2.7-2.4,4.4C64.4,6.9,65.1,5,66,3.4
				C63.4,3.2,60.8,3.1,58.3,2.7"/>
			<path class="st49" d="M81.6,15.6c-1.2,0.1-3.8-0.1-4-1c-0.1-0.7,1.1-1.3,1.6-1.5c0.7-0.3,1.7-0.5,2.6-0.5c1-0.1,3.6-0.1,3.7,0.8
				C85.8,14.5,82.9,15.5,81.6,15.6 M114.2,11.5c-0.2-1.4-1.4-2.5-2.6-2.6c-3.2-0.4-5.2,2.6-6.5,4.2c0.2-2.7,0.2-6.9-2.8-5.5
				c-2.1,0.9-4.1,3.8-4.7,5.8c-0.1-2.2,0.4-3.8,0.9-5.4c-2.5,0.2-5.1,0.3-7.7,0.4c0-0.7,0-1.3-0.2-1.7c-1.9,0.7-4.1,1-6.4,1.3
				c0.3,0.9,0.8,1.6,0.9,2.8c-2.1-2.1-5.4-3-7.7-1c-1.7,1.4-2.5,4.2-2.2,6.9c0.5,4.2,7.6,2.8,9.7,0.9c0,0.8-0.2,1.4-0.3,2.2
				c1.6-0.9,4.4-1.6,6.6-1.1c-0.2-0.8-0.2-1.7-0.3-2.5c-0.7-0.4-1.7,0.1-2.3,0.1c0.7-1.8,0.8-4.5,0.6-6.9c0.3-0.5,1-0.6,1.5-0.9
				c0,0.5,0.1,0.8,0.2,1.1c0.6,0,0.9,0.1,1.5,0.1c0.8,0.8,0.8,2.4,1,3.7c0.3,1.4,0.5,2.7,0.9,3.7c-0.6-0.3-1.4-0.4-2.1-0.2
				c0,0.7-0.1,1.6,0.1,2.2c1.8-1.1,5.1-0.1,6.5,0.4c-0.2-1-0.9-2.1-0.9-3.3c0-1.2,1-2.8,1.6-3.3c0.3-0.3,1-0.6,1.4-0.5
				c0.9,0.2,0.7,2.2,0.7,3.3c-0.1,1.6-0.4,3-0.9,4c1.8,0.4,3.5,0.8,5.2,1.2c0-0.4,0.3-0.6,0.3-1c-0.6,0-1-0.2-1.3-0.4
				c-0.5-2.1,0.1-3.3,0.9-4.7c0.8-1.3,1.5-2.8,3.3-2.6c0.5,2.8-1.1,4.9-2.1,6.7c2.2-0.1,4.8-0.1,6.9-0.1c-0.3-1.1-1.9-1-3.1-1.2
				C112.2,16,114.5,14.3,114.2,11.5"/>
		</g>
	</g>
	<g>
		<path class="st48" d="M5.2,25.6c0,0,0,0.1,0,0.1c0,0.3,0.4,0.1,0.4,0.7c0,0.1-0.1,0.1-0.1,0.2c0,0,0,0.1,0,0.2c0,0.1,0,0.1,0,0.2
			c0,0,0,0.1,0,0.1c0,0.1-0.1,0.4-0.1,0.6c0,0.1-0.1,0.2-0.1,0.3c0,0.2,0.1,0.2,0.1,0.4c0,0.3-0.2,0.4-0.2,0.5
			c0,0.1,0.1,0.2,0.1,0.2c0,0.2-0.2,0.2-0.2,0.4c0,0.1,0,0.1,0,0.2c0,0.3-0.3,0.5-0.3,0.5c0,0-0.1,0.4-0.2,0.4c0,0-0.3,0.1-0.3,0.2
			c0,0.1,0,0.1,0,0.2s0,0.1-0.1,0.1c-0.1,0-0.1-0.1-0.3-0.1c-0.4,0-0.1-0.4-0.4-0.4c0,0-0.1,0-0.1,0c-0.1,0-0.2-0.1-0.3-0.1
			c-0.1,0-0.1,0-0.1,0c-0.1,0-0.1-0.1-0.2-0.1c-0.1,0-0.5,0.2-0.5,0.2c-0.1,0-0.3,0.1-0.4,0.1c-0.1,0-0.1,0-0.2,0
			c-0.3,0-0.4,0.3-0.5,0.3c-0.1,0-0.1-0.1-0.1-0.2c0,0-0.1,0-0.1-0.1c-0.1-0.1,0-0.2-0.2-0.2c-0.1,0-0.1,0-0.2,0
			c-0.1,0-0.1,0-0.1-0.1c0-0.1,0.1-0.1,0.1-0.2c0,0,0-0.1,0-0.1c0-0.2,0.1-0.4,0.1-0.6c0-0.2-0.2-0.3-0.2-0.5c0-0.1,0.1-0.1,0.1-0.3
			c0-0.1,0-0.1,0-0.2c0-0.2,0.2-0.2,0.2-0.5c0-0.1,0-0.1,0-0.2C1,27.6,1,27.5,1,27.4C1,27.3,1,27.2,1,27.1C1,27,1,26.8,1,26.6
			c0-0.1,0-0.1,0-0.2c0-0.3,0.1-0.4,0.1-0.9c0-0.1-0.1-0.2-0.1-0.3c0-0.1,0.1-0.1,0.1-0.1c0.3,0,0.4,0.3,0.8,0.3
			c0.1,0,0.2-0.1,0.2-0.1v0l0,0c0.1-0.1,0.4-0.1,0.5-0.2c0.1-0.1,0.5-0.2,0.7-0.2c0.1,0,0.2,0.1,0.4,0.1c0.1,0,0.4-0.1,0.5-0.1
			c0.1,0,0.2-0.1,0.3-0.1c0.4,0,0.3,0.3,0.4,0.4C4.9,25.4,5.2,25.4,5.2,25.6z M4.3,28.9c0.1-0.8,0.1-0.6,0.2-0.7
			c0,0,0.1-0.4,0.1-0.5c0-0.3-0.1-0.5-0.1-0.7c0,0,0-0.1,0-0.1c0,0,0-0.1,0-0.1c0-0.1,0.1-0.2,0.1-0.3c0-0.4-0.1-0.6-0.3-0.6
			c-0.1,0-0.3,0.1-0.4,0.1c-0.2,0-0.3,0-0.5,0.1c-0.1,0-0.2,0-0.4,0c-0.2,0-0.2,0.1-0.4,0.1c-0.2,0-0.6,0.1-0.6,0.4c0,0,0,0.1,0,0.2
			c0,0.1-0.1,0.2-0.1,0.2C1.9,27,2,27.1,2,27.2c0,0.3-0.2,0.2-0.2,0.4c0,0.1,0,0.1,0,0.2c0,0.1-0.1,0.1-0.1,0.2c0,0.1,0,0.2,0,0.3
			c0,0.1-0.1,0.1-0.1,0.2c0,0.1,0.1,0.1,0.1,0.2c0,0.1-0.1,0.2-0.1,0.2c0,0.5,0.1,0.8,0.2,0.8c0.1,0,0.2,0,0.2,0c0,0,0.1,0,0.1,0
			c0.2,0,0.4-0.1,0.4-0.2c0.1,0,0.3,0,0.3,0c0.1,0,0.1,0.1,0.2,0.1c0.1,0,0.1-0.1,0.1-0.1c0.1,0,0.1,0.1,0.2,0.1c0,0,0.1,0,0.1,0
			c0.1,0,0.3,0.1,0.5,0.1c0,0,0.1-0.1,0.1-0.1c0-0.1,0-0.1,0-0.2c0,0,0-0.1,0-0.1C4.2,29.1,4.3,29.1,4.3,28.9z"/>
		<path class="st48" d="M6.9,28.9c-0.1,0-0.1,0.1-0.2,0.1c0,0-0.1,0-0.1-0.1c0,0,0,0,0,0c-0.1,0-0.1-0.1-0.1-0.1c0,0,0,0-0.1,0.1
			c-0.1,0.1-0.1,0.1-0.3,0.1c0-0.1,0-0.1,0.1-0.1c0,0,0.1-0.1,0.1-0.1c0-0.1,0-0.1,0-0.1c0,0,0-0.1,0.1-0.2c0-0.1,0-0.1,0.1-0.1
			c0,0,0.1,0,0.1-0.1c0,0,0-0.1,0.1-0.1c0.1,0,0.1,0,0.2,0c0,0,0.1-0.1,0.1-0.1c0-0.1,0-0.1,0.1-0.2c0-0.1,0.1-0.1,0.1-0.1
			c0-0.1,0-0.2,0.1-0.2c0.1,0,0.1,0,0.2,0c0,0,0,0,0,0c0,0,0,0,0,0c0,0,0,0,0,0c0,0,0,0,0-0.1c0,0,0.1,0,0.1-0.1
			C7.4,27,7.4,27,7.4,26.9c0-0.1,0.1-0.1,0.1-0.1c0-0.1,0-0.2-0.1-0.3c0-0.1,0-0.1,0-0.2c0-0.1,0-0.2-0.1-0.2c0,0,0,0-0.1-0.1
			c0,0-0.1,0-0.1,0c0,0-0.1-0.1-0.1-0.1c0,0,0,0,0,0c0,0,0,0,0,0c0,0-0.1,0-0.1-0.1c0,0,0,0-0.1,0c0,0,0,0,0,0c0,0,0,0,0,0
			c0,0,0,0,0,0c0,0,0,0,0,0c0,0,0,0,0,0c-0.1,0-0.2-0.2-0.1-0.4c0,0,0,0,0,0c0-0.1,0.2-0.1,0.3-0.1c0,0,0,0,0.1,0c0,0,0.1,0,0.1,0
			c0,0,0.1,0,0.1,0c0.1,0,0.1,0,0.2,0c0,0,0.1,0,0.2,0.1c0,0,0,0,0.1,0c0,0,0,0,0,0c0,0,0,0,0,0c0,0,0,0,0,0c0,0,0.1,0.1,0.1,0.1
			c0.1,0,0.2,0,0.2,0c0.1,0,0.1,0.1,0.2,0.2c0.1,0,0.1,0,0.2,0c0,0,0.1,0.1,0.1,0.1c0.1,0.1,0.1,0.1,0.2,0.1c0,0,0,0,0,0.1
			c0,0,0,0,0,0.1c0,0,0,0,0,0c0,0,0,0.1,0,0.1c0,0.1,0,0.1,0,0.2c0,0.1,0.1,0.1,0.1,0.2c0,0,0,0.1,0,0.1c0,0,0,0.1,0,0.1
			c0,0,0,0.1-0.1,0.1c0,0,0,0,0,0.1c0,0.1-0.1,0.1-0.2,0.2c0,0,0,0.1,0,0.1c0,0.1,0,0.1-0.1,0.1c0,0-0.1,0.1-0.1,0.1
			c-0.1,0.1-0.1,0.1-0.2,0.2c0,0,0,0.1-0.1,0.1c-0.1,0.1-0.2,0.1-0.2,0.1c0,0,0,0.1,0,0.1c0,0,0,0.1,0,0.1c0,0,0,0.1-0.1,0.1
			c0,0,0,0.1-0.1,0.1c0,0-0.1,0.1-0.1,0.1c0,0-0.1,0.1-0.1,0.1c0,0,0,0,0,0.1c0,0,0,0,0,0.1c0,0,0,0,0,0.1c0,0.1,0,0.1-0.1,0.2
			C7.1,28.9,7,28.9,6.9,28.9z M6.4,28.6C6.4,28.6,6.4,28.6,6.4,28.6c0.1,0,0.1,0,0.1-0.1c0,0-0.1-0.1-0.1,0
			C6.3,28.5,6.4,28.5,6.4,28.6z"/>
		<path class="st48" d="M11.4,22.4c0,0.4-0.2,0.8-0.2,0.8c-0.5,1-0.1,0.7-0.3,1.1c0,0.1-0.1,0.1-0.1,0.3c0,0.2-0.1,0.1-0.1,0.2
			c0,0.1,0.1,0.1,0.1,0.2c0,0,0,0.1-0.1,0.2c0,0,0,0.1,0,0.1c0,0.2-0.1,0.4-0.1,0.5c0,0.1,0,0.2,0.1,0.2c0.2,0,0.3-0.2,0.4-0.2
			c0.1,0,0.1,0,0.2,0c0.1,0,0.4-0.2,0.5-0.2c0.1,0,0.2,0,0.3,0c0.6-0.2,0.4-0.2,0.7-0.3c0,0,0.1,0,0.1,0c0.1,0,0.1,0.1,0.2,0.1
			c0.1,0,0.2,0,0.3,0c0.4,0,0.2,0.2,0.4,0.2c0.1,0,0.1,0.2,0.1,0.2c0,0.1,0.1,0.1,0.1,0.1c0,0.6,0.3,0.5,0.3,0.8
			c0,0.1-0.1,0.2-0.1,0.3c0,0.1,0.1,0.1,0.1,0.2c0,0.1-0.1,0.1-0.1,0.1c0,0.1,0.1,0.1,0.1,0.2c0,0.1,0,0.1,0,0.1
			c0,0.1,0.1,0.1,0.1,0.2c0,0.1-0.1,0.2-0.1,0.3c0,0.1,0,0.1,0,0.2c0,0.2-0.3,0.4-0.3,0.4c0,0,0,0-0.1,0c0,0,0,0-0.1,0
			c0,0-0.1,0.1-0.1,0.1c0,0,0.1,0.1,0.1,0.1c0,0-0.2,0.4-0.2,0.4c0,0-0.1,0-0.1,0c-0.2,0-0.4,0.3-0.4,0.3c-0.1,0.1-0.2,0.3-0.5,0.3
			c-0.1,0-0.1-0.1-0.2-0.1c-0.1,0-0.3,0.2-0.4,0.2c-0.1,0-0.1,0-0.2,0c-0.1,0-0.3,0.3-0.6,0.4c0,0-0.1,0-0.1,0c-0.1,0-0.1,0-0.1,0
			c-0.1,0-0.1,0-0.2,0c-0.3,0-0.2,0.3-0.4,0.3c-0.1,0-0.2-0.1-0.3-0.1c-0.1,0-0.1,0.1-0.3,0.1c-0.2,0-0.4-0.1-0.4-0.2
			c0-0.1,0.2-0.1,0.2-0.1c0-0.1-0.1-0.1-0.1-0.2c0-0.1,0.1-0.3,0.2-0.3c0,0,0.1,0,0.2,0c0.1,0,0.1-0.1,0.2-0.1c0.1,0,0.1,0,0.2,0
			c0.1,0,0.1-0.1,0.2-0.1c0.2,0,0.3,0.1,0.5,0.1c0.3-0.1,0-0.3,0.6-0.3c0.1,0,0.2-0.1,0.3-0.1c0.1,0,0.1,0,0.2,0
			c0.1,0,0.3-0.2,0.3-0.2c0,0,0.1,0,0.1,0c0.1,0,0.5-0.4,0.5-0.5c0-0.1,0.2-0.2,0.2-0.4c0-0.3,0.1-0.2,0.1-0.6
			c0-0.2,0.1-0.5,0.1-0.6c0-0.1-0.1-0.3-0.1-0.3c-0.1-0.3-0.5-0.6-0.7-0.6c-0.2,0-0.2,0.2-0.3,0.2c0,0-0.1,0-0.1,0
			c-0.1,0-0.1,0-0.2,0c0,0-0.1,0-0.1,0c-0.1,0-0.1,0-0.2,0c0,0,0,0-0.1,0c-0.2,0-0.4,0.2-0.5,0.2c0,0-0.1,0-0.1,0
			c-0.1,0-0.1,0.1-0.2,0.1c0,0-0.1,0-0.1,0c-0.2,0-0.2,0.2-0.3,0.2c-0.1,0-0.1-0.1-0.2-0.2c0,0-0.1,0-0.2,0c-0.1,0-0.1-0.1-0.2-0.1
			c-0.1,0-0.1,0.1-0.1,0.1c0,0-0.3-0.1-0.3-0.2c0-0.2,0.2-0.1,0.2-0.6c0-0.1,0-0.1-0.1-0.2c0-0.5,0.4-0.7,0.4-1.3c0-0.1,0-0.1,0-0.1
			c0-0.2,0.2-0.3,0.2-0.3c-0.1-0.2,0.4-0.2,0.4-0.9C10.6,22.5,11.1,22.3,11.4,22.4C11.4,22.3,11.4,22.3,11.4,22.4
			C11.4,22.3,11.4,22.3,11.4,22.4z"/>
		<path class="st48" d="M16.8,26.2c0,0.1,0,0.2-0.1,0.3c0,0,0,0.1,0,0.1c0,0.1,0.1,0.2,0.1,0.2c0,0,0,0.1,0,0.1c0,0,0,0.1,0,0.1
			c0,0.1,0.1,0.1,0.1,0.2c0,0.1-0.1,0.2-0.1,0.2c0,0.1,0,0.2,0,0.3c0,0.1,0,0.1,0,0.2c0,0.1,0,0.1,0,0.2c0,0.1,0,0.1,0,0.2
			c0,0.1-0.1,0.1-0.1,0.2c0,0,0,0.1,0,0.1c0,0.1-0.1,0.2-0.1,0.3c0,0.1,0,0.2,0,0.2c0,0.1-0.1,0.1-0.1,0.2c0,0.1,0,0.1,0,0.1
			c0,0.1-0.1,0.1-0.1,0.1c0,0.1,0,0.2,0,0.2c0,0.1,0,0.2,0,0.3c0,0.1,0,0.2,0,0.3c0,0-0.1,0.1-0.1,0.1c-0.1,0-0.1,0-0.1,0
			c-0.1,0-0.1,0.1-0.2,0.1c-0.1,0-0.1,0-0.1,0c0,0-0.1,0-0.1,0c0,0-0.1,0-0.1,0c0,0-0.1,0-0.1,0c-0.1,0-0.1-0.1-0.1-0.1
			c-0.1,0-0.1,0-0.2,0c0-0.1,0.1-0.1,0.1-0.2c0-0.1,0-0.1,0-0.2c0-0.1,0.1-0.1,0.1-0.2c0,0,0-0.1,0-0.1c0-0.1,0.1-0.1,0.1-0.1
			c0-0.1,0-0.1,0-0.2c0,0,0-0.1,0-0.1c0-0.1,0-0.1,0.1-0.2c0,0,0-0.1,0-0.1c0,0,0-0.1,0-0.1c0-0.2,0-0.3,0-0.4c0-0.1,0-0.1,0-0.2
			c0-0.1,0.1-0.1,0.1-0.2c0-0.1,0-0.1,0-0.2c0-0.1,0.1-0.1,0.1-0.1c0,0,0-0.1,0-0.2c0-0.1,0.1-0.1,0.1-0.1c0,0,0-0.1,0-0.1
			c0-0.1,0.1-0.2,0.1-0.2c0-0.1,0-0.1,0-0.2c0-0.1-0.1-0.1-0.1-0.2c0,0,0-0.1,0-0.2c0-0.2-0.1-0.3,0-0.4c0,0,0,0,0.1-0.1
			c0-0.1,0-0.1,0-0.2c0,0,0-0.1,0.1-0.1c0-0.1-0.1-0.2-0.1-0.2c0-0.1,0.1-0.2,0.2-0.3c0,0,0.1,0,0.1,0c0.1,0,0.1-0.1,0.1-0.1
			c0,0,0.1,0,0.2,0c0.1,0,0.1-0.1,0.2-0.1c0,0,0.1,0,0.1,0c0.1,0,0.1,0,0.2,0c0.1,0,0.2,0,0.2,0c0,0,0.1,0.1,0.1,0.2
			c0,0.1,0,0.1-0.1,0.2c0,0,0,0.1,0,0.2c0,0.1,0,0.2-0.1,0.2c0,0,0,0,0,0c0,0-0.1,0-0.1,0.1C16.7,26.2,16.8,26.2,16.8,26.2z"/>
		<path class="st48" d="M23.1,25.5c-0.1,0-0.1-0.1-0.2-0.1c-0.1,0-0.2,0.1-0.2,0.1c0,0.1,0.1,0.1,0.2,0.2c-0.1,0.1-0.2,0.1-0.2,0.1
			c-0.1,0-0.1-0.1-0.2-0.1c-0.2,0-0.2,0.3-0.3,0.3c-0.1,0-0.3,0.1-0.3,0.3c0,0.1,0,0.1,0,0.2c0,0.1,0,0.1,0,0.2
			c0,0.1,0.1,0.1,0.1,0.2c0,0,0,0.1,0,0.1c0,0.1,0,0.2,0,0.2c0,0.1-0.1,0.2-0.1,0.3c0,0,0,0.1,0,0.1c0,0.1,0,0.1,0,0.2
			c0,0,0,0.1,0,0.1c0,0,0,0.1,0,0.1c0,0.1,0,0.2,0,0.2c0,0.1-0.1,0.3-0.1,0.3c0,0,0,0-0.1,0c0,0-0.1,0-0.1,0.1
			c0,0.1,0.1,0.2,0.1,0.2c0,0.1-0.1,0.3-0.1,0.5c0,0.1,0,0.1,0,0.1c0,0.1,0,0.1,0,0.1c0,0.1,0.1,0.2,0.1,0.2c0,0.1-0.1,0.1-0.1,0.4
			c0,0.1,0,0.1,0,0.2c0,0-0.3,0.2-0.3,0.2c0,0,0,0,0,0c-0.1,0-0.2-0.1-0.3-0.1c-0.1,0-0.1,0-0.1,0c-0.1,0-0.1,0-0.2,0
			c-0.1,0-0.1,0-0.1,0c-0.2,0-0.2-0.4-0.2-0.6c0-0.1,0.1-0.1,0.1-0.2c0-0.1-0.1-0.1-0.1-0.2c0-0.1,0.1-0.2,0.1-0.2
			c0-0.1-0.1-0.2-0.1-0.3c0-0.1,0-0.1,0.1-0.2c0,0,0-0.1,0-0.1c0-0.1,0-0.1,0.1-0.2c0,0,0-0.1,0-0.1c0,0,0-0.1,0-0.1
			c0-0.1-0.1-0.2-0.1-0.2c0-0.1,0.1-0.2,0.1-0.3c0-0.1,0-0.1,0-0.2c0-0.1,0-0.4,0.1-0.5c0,0,0.3-0.1,0.3-0.3c0-0.1-0.1-0.1-0.1-0.2
			c0,0,0-0.1,0-0.1c0-0.2-0.1-0.3-0.2-0.3c0,0-0.1,0-0.1,0c-0.1,0-0.2,0-0.2,0c-0.2,0-0.5,0.1-0.6,0.1c-0.1,0-0.1,0-0.2,0
			c-0.1,0-0.1,0-0.1,0c-0.1,0-0.1,0-0.2,0c-0.3,0-0.7,0.1-0.9,0.1c-0.5,0-0.7-0.4-0.7-0.4c0-0.2,0.6-0.2,0.7-0.2c0,0,0.1,0,0.1,0
			c0.1,0,0.4-0.2,0.5-0.2c0,0,0.1,0,0.1,0c0.4,0,0.5-0.2,0.8-0.2c0.1,0,0.2,0.1,0.3,0.1c0.3,0,0.4-0.2,0.6-0.2
			c0.1,0,0.1,0.1,0.2,0.1c0.1,0,0.4,0,0.4-0.1c0,0,0.1-0.1,0.1-0.1c0,0,0,0,0.1,0c0,0,0.1,0,0.1,0c0,0,0.1,0,0.1,0
			c0.1,0,0.2-0.1,0.2-0.1c0.3,0,0.3,0.3,0.5,0.3c0.1,0,0.1-0.3,0.4-0.3c0,0,0.1,0,0.1,0c0,0,0.1,0,0.1,0c0,0,0.4,0.1,0.4,0.2
			C23.3,25.3,23.2,25.5,23.1,25.5z"/>
		<path class="st48" d="M26.5,25.7C26.5,25.7,26.6,25.6,26.5,25.7c0.3,0,0.4,0.3,0.5,0.5c0.1,0.1,0,0.1,0.1,0.3
			c0.1,0.3,0.3,0.7,0.4,0.9c0.1,0.1,0.1,0.4,0.1,0.5c0,0.1,0.1,0.1,0.1,0.3c0,0.1,0,0.1,0,0.2c0,0.1,0.1,0.2,0.1,0.2
			c0,0,0,0.1,0,0.1c0,0.1,0.1,0.1,0.1,0.3c0,0,0,0,0,0.1c0,0.1,0,0.1,0,0.2c0,0,0,0.1,0,0.1c0,0.3,0.2,0.4,0.2,0.5c0,0,0,0.1,0,0.1
			c0,0.1,0.1,0.2,0.1,0.2c0,0.1-0.1,0.3-0.2,0.3c-0.1,0-0.1,0-0.1,0c-0.2,0-0.3,0.2-0.6,0.2c-0.3,0-0.4-1.1-0.4-1
			c-0.1-0.3,0-0.4-0.3-1.1c0-0.1,0-0.3-0.1-0.3c-0.1,0-0.2,0.2-0.3,0.2c-0.3,0.1-0.6,0.5-0.9,0.8c-0.1,0.1-0.2,0.2-0.3,0.2
			c-0.3,0.3-0.3,0.3-0.5,0.4c-0.2,0.1-0.3,0.4-0.5,0.5c-0.2,0.2-0.3,0.1-0.6,0.3c-0.1,0-0.1,0.1-0.2,0.1c-0.1,0-0.2-0.3-0.2-0.3
			c0-0.1,0.1-0.2,0.2-0.2c0-0.1,0-0.2,0.2-0.4c0.1-0.1,0.1,0,0.3-0.3c0.2-0.2,0.4-0.3,0.5-0.4c0.2-0.3,0.2-0.2,0.5-0.5
			c0,0,0.3-0.2,0.4-0.2c0.2-0.2,0.2-0.4,0.3-0.4c0.1-0.1,0.3-0.1,0.3-0.3c0.3-0.3,0.4-0.4,0.4-0.5c0-0.2-0.2-0.4-0.3-0.6
			c-0.1-0.2-0.1-0.4-0.2-0.5c-0.1-0.2-0.1-0.4-0.5-0.8c0,0-0.1-0.1-0.1-0.1c-0.2,0-0.4,0.4-0.4,0.7c-0.2,0.3-0.3,0.2-0.3,0.4
			c-0.1,0.1,0,0.2-0.3,0.2c-0.1,0-0.2-0.1-0.2-0.2c0,0,0-0.1,0-0.1c0-0.1,0-0.1,0-0.1c0-0.3,0.2-0.8,0.3-0.8
			c0.1-0.2,0.5-0.7,0.7-0.8c0.1,0,0.2,0,0.3,0c0,0,0.1,0,0.1,0c0.1,0,0.2-0.1,0.3-0.1c0.2,0,0.5,0.1,0.5,0.5c0,0.1,0.3,0.2,0.3,0.3
			C26.5,25.5,26.4,25.5,26.5,25.7C26.4,25.6,26.4,25.6,26.5,25.7C26.4,25.6,26.5,25.7,26.5,25.7z"/>
		<path class="st48" d="M30.9,22.4c0,0.4-0.2,0.8-0.2,0.8c-0.5,1-0.1,0.7-0.3,1.1c0,0.1-0.1,0.1-0.1,0.3c0,0.2-0.1,0.1-0.1,0.2
			c0,0.1,0.1,0.1,0.1,0.2c0,0,0,0.1-0.1,0.2c0,0,0,0.1,0,0.1c0,0.2-0.1,0.4-0.1,0.5c0,0.1,0,0.2,0.1,0.2c0.2,0,0.3-0.2,0.4-0.2
			c0.1,0,0.1,0,0.2,0c0.1,0,0.4-0.2,0.5-0.2c0.1,0,0.2,0,0.3,0c0.6-0.2,0.4-0.2,0.7-0.3c0,0,0.1,0,0.1,0c0.1,0,0.1,0.1,0.2,0.1
			c0.1,0,0.2,0,0.3,0c0.4,0,0.2,0.2,0.4,0.2c0.1,0,0.1,0.2,0.1,0.2c0,0.1,0.1,0.1,0.1,0.1c0,0.6,0.3,0.5,0.3,0.8
			c0,0.1-0.1,0.2-0.1,0.3c0,0.1,0.1,0.1,0.1,0.2c0,0.1-0.1,0.1-0.1,0.1c0,0.1,0.1,0.1,0.1,0.2c0,0.1,0,0.1,0,0.1
			c0,0.1,0.1,0.1,0.1,0.2c0,0.1-0.1,0.2-0.1,0.3c0,0.1,0,0.1,0,0.2c0,0.2-0.3,0.4-0.3,0.4c0,0,0,0-0.1,0c0,0,0,0,0,0
			c0,0-0.1,0.1-0.1,0.1c0,0,0.1,0.1,0.1,0.1c0,0-0.2,0.4-0.2,0.4c0,0,0,0-0.1,0c-0.2,0-0.4,0.3-0.4,0.3c-0.1,0.1-0.2,0.3-0.5,0.3
			c-0.1,0-0.1-0.1-0.2-0.1c-0.1,0-0.3,0.2-0.4,0.2c-0.1,0-0.1,0-0.2,0c0,0-0.3,0.3-0.6,0.4c0,0-0.1,0-0.1,0c-0.1,0-0.1,0-0.1,0
			c-0.1,0-0.1,0-0.2,0c-0.3,0-0.2,0.3-0.4,0.3c-0.1,0-0.2-0.1-0.3-0.1c-0.1,0-0.1,0.1-0.3,0.1c-0.2,0-0.4-0.1-0.4-0.2
			c0-0.1,0.2-0.1,0.2-0.1c0-0.1-0.1-0.1-0.1-0.2c0-0.1,0.1-0.3,0.2-0.3c0,0,0.1,0,0.2,0c0.1,0,0.1-0.1,0.2-0.1c0,0,0.1,0,0.2,0
			c0.1,0,0.1-0.1,0.2-0.1c0.2,0,0.3,0.1,0.5,0.1c0.3-0.1,0-0.3,0.6-0.3c0.1,0,0.2-0.1,0.3-0.1c0.1,0,0.1,0,0.2,0
			c0.1,0,0.3-0.2,0.3-0.2c0,0,0.1,0,0.1,0c0.1,0,0.5-0.4,0.5-0.5c0-0.1,0.2-0.2,0.2-0.4c0-0.3,0.1-0.2,0.1-0.6
			c0-0.2,0.1-0.5,0.1-0.6c0-0.1-0.1-0.3-0.1-0.3c-0.1-0.3-0.5-0.6-0.7-0.6c-0.2,0-0.2,0.2-0.3,0.2c0,0-0.1,0-0.1,0
			c-0.1,0-0.1,0-0.2,0c0,0-0.1,0-0.1,0c-0.1,0-0.1,0-0.2,0c0,0-0.1,0-0.1,0c-0.2,0-0.4,0.2-0.5,0.2c0,0-0.1,0-0.1,0
			c-0.1,0-0.1,0.1-0.2,0.1c0,0-0.1,0-0.1,0c-0.2,0-0.2,0.2-0.3,0.2c-0.1,0-0.1-0.1-0.2-0.2c0,0-0.1,0-0.2,0c-0.1,0-0.1-0.1-0.2-0.1
			c-0.1,0-0.1,0.1-0.1,0.1c-0.1,0-0.3-0.1-0.3-0.2c0-0.2,0.2-0.1,0.2-0.6c0-0.1,0-0.1-0.1-0.2c0-0.5,0.4-0.7,0.4-1.3
			c0-0.1,0-0.1,0-0.1c0-0.2,0.2-0.3,0.2-0.3C29.5,23.7,30,23.7,30,23C30.1,22.5,30.6,22.3,30.9,22.4C30.9,22.3,30.9,22.3,30.9,22.4
			C30.9,22.3,30.9,22.3,30.9,22.4z"/>
		<path class="st48" d="M36.3,26.2c0,0.1,0,0.2-0.1,0.3c0,0,0,0.1,0,0.1c0,0.1,0.1,0.2,0.1,0.2c0,0,0,0.1,0,0.1c0,0,0,0.1,0,0.1
			c0,0.1,0.1,0.1,0.1,0.2c0,0.1-0.1,0.2-0.1,0.2c0,0.1,0,0.2,0,0.3c0,0.1,0,0.1,0,0.2c0,0.1,0,0.1,0,0.2c0,0.1,0,0.1,0,0.2
			c0,0.1-0.1,0.1-0.1,0.2c0,0,0,0.1,0,0.1c0,0.1-0.1,0.2-0.1,0.3c0,0.1,0,0.2,0,0.2c0,0.1-0.1,0.1-0.1,0.2c0,0.1,0,0.1,0,0.1
			c0,0.1-0.1,0.1-0.1,0.1c0,0.1,0,0.2,0,0.2c0,0.1,0,0.2,0,0.3c0,0.1,0,0.2,0,0.3c0,0-0.1,0.1-0.1,0.1c-0.1,0-0.1,0-0.1,0
			c-0.1,0-0.1,0.1-0.2,0.1c-0.1,0-0.1,0-0.1,0c0,0-0.1,0-0.1,0c0,0-0.1,0-0.1,0c0,0-0.1,0-0.1,0c-0.1,0-0.1-0.1-0.1-0.1
			c-0.1,0-0.1,0-0.2,0c0-0.1,0.1-0.1,0.1-0.2c0-0.1,0-0.1,0-0.2c0-0.1,0.1-0.1,0.1-0.2c0,0,0-0.1,0-0.1c0-0.1,0.1-0.1,0.1-0.1
			c0-0.1,0-0.1,0-0.2c0,0,0-0.1,0-0.1c0-0.1,0-0.1,0.1-0.2c0,0,0-0.1,0-0.1c0,0,0-0.1,0-0.1c0-0.2,0-0.3,0-0.4c0-0.1,0-0.1,0-0.2
			c0-0.1,0.1-0.1,0.1-0.2c0-0.1,0-0.1,0-0.2c0-0.1,0.1-0.1,0.1-0.1c0,0,0-0.1,0-0.2c0-0.1,0.1-0.1,0.1-0.1c0,0,0-0.1,0-0.1
			c0-0.1,0.1-0.2,0.1-0.2c0-0.1,0-0.1,0-0.2c0-0.1,0-0.1-0.1-0.2c0,0,0-0.1,0-0.2c0-0.2-0.1-0.3,0-0.4c0,0,0,0,0-0.1
			c0-0.1,0-0.1,0-0.2c0,0,0.1-0.1,0.1-0.1c0-0.1-0.1-0.2-0.1-0.2c0-0.1,0.1-0.2,0.2-0.3c0,0,0.1,0,0.1,0c0.1,0,0.1-0.1,0.1-0.1
			c0,0,0.1,0,0.2,0c0.1,0,0.1-0.1,0.2-0.1c0,0,0.1,0,0.1,0c0,0,0.1,0,0.2,0c0.1,0,0.2,0,0.2,0c0,0,0.1,0.1,0.1,0.2
			c0,0.1-0.1,0.1-0.1,0.2c0,0,0,0.1,0,0.2c0,0.1,0,0.2-0.1,0.2c0,0,0,0,0,0c0,0-0.1,0-0.1,0.1C36.2,26.2,36.3,26.2,36.3,26.2z"/>
		<path class="st48" d="M44.4,25.6c0,0,0,0.1,0,0.1c0,0.3,0.4,0.1,0.4,0.7c0,0.1-0.1,0.1-0.1,0.2c0,0,0,0.1,0,0.2c0,0.1,0,0.1,0,0.2
			c0,0,0,0.1,0,0.1c0,0.1-0.1,0.4-0.1,0.6c0,0.1-0.1,0.2-0.1,0.3c0,0.2,0.1,0.2,0.1,0.4c0,0.3-0.2,0.4-0.2,0.5
			c0,0.1,0.1,0.2,0.1,0.2c0,0.2-0.2,0.2-0.2,0.4c0,0.1,0,0.1,0,0.2c0,0.3-0.3,0.5-0.3,0.5c0,0-0.1,0.4-0.2,0.4c0,0-0.3,0.1-0.3,0.2
			c0,0.1,0.1,0.1,0.1,0.2s-0.1,0.1-0.1,0.1c-0.1,0-0.1-0.1-0.3-0.1c-0.4,0-0.1-0.4-0.4-0.4c0,0-0.1,0-0.1,0c-0.1,0-0.2-0.1-0.3-0.1
			c-0.1,0-0.1,0-0.1,0c-0.1,0-0.1-0.1-0.2-0.1c-0.1,0-0.5,0.2-0.5,0.2c-0.1,0-0.3,0.1-0.4,0.1c-0.1,0-0.1,0-0.2,0
			c-0.3,0-0.4,0.3-0.5,0.3c-0.1,0-0.1-0.1-0.1-0.2c0,0-0.1,0-0.1-0.1c-0.1-0.1,0-0.2-0.2-0.2c-0.1,0-0.1,0-0.2,0
			c-0.1,0-0.1,0-0.1-0.1c0-0.1,0.1-0.1,0.1-0.2c0,0,0-0.1,0-0.1c0-0.2,0.1-0.4,0.1-0.6c0-0.2-0.2-0.3-0.2-0.5c0-0.1,0.1-0.1,0.1-0.3
			c0-0.1,0-0.1,0-0.2c0-0.2,0.2-0.2,0.2-0.5c0-0.1,0-0.1,0-0.2c0-0.1,0.1-0.3,0.1-0.4c0-0.1-0.1-0.2-0.1-0.2c0-0.2,0.1-0.4,0.1-0.5
			c0-0.1,0-0.1,0-0.2c0-0.3,0.1-0.4,0.1-0.9c0-0.1-0.1-0.2-0.1-0.3c0-0.1,0.1-0.1,0.1-0.1c0.3,0,0.4,0.3,0.8,0.3
			c0.1,0,0.2-0.1,0.2-0.1v0l0,0c0.1-0.1,0.4-0.1,0.5-0.2c0.1-0.1,0.5-0.2,0.7-0.2c0.1,0,0.2,0.1,0.4,0.1c0.1,0,0.4-0.1,0.5-0.1
			c0.1,0,0.2-0.1,0.3-0.1c0.4,0,0.3,0.3,0.4,0.4C44.1,25.4,44.4,25.4,44.4,25.6z M43.5,28.9c0.1-0.8,0.1-0.6,0.2-0.7
			c0,0,0.1-0.4,0.1-0.5c0-0.3-0.1-0.5-0.1-0.7c0,0,0-0.1,0-0.1c0,0,0-0.1,0-0.1c0-0.1,0-0.2,0-0.3c0-0.4-0.1-0.6-0.3-0.6
			c-0.1,0-0.3,0.1-0.4,0.1c-0.2,0-0.3,0-0.5,0.1c-0.1,0-0.2,0-0.4,0c-0.2,0-0.2,0.1-0.4,0.1c-0.2,0-0.6,0.1-0.6,0.4c0,0,0,0.1,0,0.2
			c0,0.1-0.1,0.2-0.1,0.2c0,0.1,0.1,0.2,0.1,0.3c0,0.3-0.2,0.2-0.2,0.4c0,0.1,0,0.1,0,0.2c0,0.1-0.1,0.1-0.1,0.2c0,0.1,0,0.2,0,0.3
			c0,0.1-0.1,0.1-0.1,0.2c0,0.1,0.1,0.1,0.1,0.2c0,0.1-0.1,0.2-0.1,0.2c0,0.5,0.1,0.8,0.2,0.8c0.1,0,0.2,0,0.2,0c0,0,0.1,0,0.1,0
			c0.2,0,0.4-0.1,0.4-0.2c0.1,0,0.3,0,0.3,0c0.1,0,0.1,0.1,0.2,0.1c0.1,0,0.1-0.1,0.1-0.1c0.1,0,0.1,0.1,0.2,0.1c0,0,0.1,0,0.1,0
			c0.1,0,0.3,0.1,0.5,0.1c0,0,0.1-0.1,0.1-0.1c0-0.1,0-0.1,0-0.2c0,0,0-0.1,0-0.1C43.4,29.1,43.5,29.1,43.5,28.9z"/>
		<path class="st48" d="M46.1,28.9c-0.1,0-0.1,0.1-0.2,0.1c0,0-0.1,0-0.1-0.1c0,0,0,0,0,0c-0.1,0-0.1-0.1-0.1-0.1c0,0-0.1,0-0.1,0.1
			c-0.1,0.1-0.1,0.1-0.3,0.1c0-0.1,0-0.1,0.1-0.1c0,0,0.1-0.1,0.1-0.1c0-0.1,0-0.1,0-0.1c0,0,0-0.1,0.1-0.2c0-0.1,0-0.1,0.1-0.1
			c0,0,0.1,0,0.1-0.1c0,0,0-0.1,0.1-0.1c0.1,0,0.1,0,0.2,0c0,0,0-0.1,0.1-0.1c0-0.1,0-0.1,0.1-0.2c0-0.1,0.1-0.1,0.1-0.1
			c0-0.1,0-0.2,0.1-0.2c0.1,0,0.1,0,0.2,0c0,0,0,0,0,0c0,0,0,0,0,0c0,0,0,0,0,0c0,0,0,0,0-0.1c0,0,0.1,0,0.1-0.1
			c0.1-0.1,0.1-0.1,0.1-0.2c0-0.1,0.1-0.1,0.1-0.1c0-0.1,0-0.2-0.1-0.3c0-0.1,0-0.1,0-0.2c0-0.1-0.1-0.2-0.1-0.2c0,0,0,0-0.1-0.1
			c0,0-0.1,0-0.1,0c0,0-0.1-0.1-0.1-0.1c0,0,0,0,0,0c0,0,0,0,0,0c0,0-0.1,0-0.1-0.1c0,0,0,0-0.1,0c0,0,0,0,0,0c0,0,0,0,0,0
			c0,0,0,0,0,0c0,0,0,0,0,0c0,0,0,0,0,0c-0.1,0-0.2-0.2-0.1-0.4c0,0,0,0,0,0c0-0.1,0.2-0.1,0.3-0.1c0,0,0,0,0.1,0c0,0,0.1,0,0.1,0
			c0,0,0.1,0,0.1,0c0.1,0,0.1,0,0.2,0c0.1,0,0.1,0,0.2,0.1c0,0,0,0,0.1,0c0,0,0,0,0,0c0,0,0,0,0,0c0,0,0,0,0,0c0,0,0.1,0.1,0.1,0.1
			c0.1,0,0.2,0,0.2,0c0.1,0,0.1,0.1,0.2,0.2c0.1,0,0.1,0,0.2,0c0,0,0.1,0.1,0.1,0.1c0.1,0.1,0.1,0.1,0.2,0.1c0,0,0,0,0,0.1
			c0,0,0,0,0,0.1c0,0,0,0,0,0c0,0,0,0.1,0,0.1c0,0.1,0,0.1,0,0.2c0,0.1,0.1,0.1,0.1,0.2c0,0,0,0.1,0,0.1c0,0,0,0.1,0,0.1
			c0,0,0,0.1-0.1,0.1c0,0,0,0,0,0.1c0,0.1-0.1,0.1-0.2,0.2c0,0,0,0.1,0,0.1c0,0.1,0,0.1-0.1,0.1c0,0-0.1,0.1-0.1,0.1
			c-0.1,0.1-0.1,0.1-0.2,0.2c0,0,0,0.1-0.1,0.1c-0.1,0.1-0.2,0.1-0.2,0.1c0,0,0,0.1,0,0.1c0,0,0,0.1,0,0.1c0,0,0,0.1-0.1,0.1
			c0,0,0,0.1-0.1,0.1c0,0-0.1,0.1-0.1,0.1c0,0-0.1,0.1-0.1,0.1c0,0,0,0,0,0.1c0,0,0,0,0,0.1c0,0,0,0,0,0.1c0,0.1,0,0.1-0.1,0.2
			C46.3,28.9,46.2,28.9,46.1,28.9z M45.5,28.6C45.6,28.6,45.6,28.6,45.5,28.6c0.1,0,0.1,0,0.1-0.1c0,0-0.1-0.1-0.1,0
			C45.5,28.5,45.5,28.5,45.5,28.6z"/>
		<path class="st48" d="M50.1,25.5c0,0,0.2,0.1,0.2,0.1c0.2,0,0.2-0.2,0.2-0.2c0,0,0.1,0,0.1,0.1c0,0,0,0,0,0.1c0,0,0,0,0,0
			c0,0,0.1,0,0.1,0c0.1,0,0.2,0,0.2,0.1c0,0.1,0,0.1,0,0.1c0,0.2,0.2,0.2,0.2,0.4c0,0.1,0,0.1,0,0.2c0,0.1-0.1,0.2-0.1,0.3
			c0,0.1,0,0.1,0,0.1c0,0,0,0.1,0,0.1c0,0.1,0.2,0.1,0.2,0.2c0,0,0,0.1,0,0.2c0,0,0,0.1,0,0.1c0,0.1-0.1,0.1-0.1,0.2
			c0,0.1,0,0.1,0,0.1c0,0,0,0.1,0,0.1c0,0,0,0.1,0,0.1c0,0,0,0.1,0,0.1c0,0.1,0.1,0.1,0.1,0.2c0,0.1-0.1,0.1-0.1,0.2
			c0,0.1,0.1,0.2,0.1,0.2c0,0.1-0.3,0.1-0.3,0.3c0,0,0,0.1,0,0.1c0,0.1,0,0.2,0,0.3c0,0.1,0,0.1,0,0.2c0,0.2-0.2,0.3-0.2,0.5
			c-0.1,0.3-0.1,0.1-0.2,0.4c-0.1,0-0.2,0-0.3,0.2c-0.1,0.1-0.2,0.2-0.3,0.3c-0.3,0.1-0.3,0.2-0.5,0.2c-0.2,0-0.2,0.1-0.4,0.1
			c0,0-0.1,0.1-0.1,0.1c-0.1,0-0.1-0.1-0.2-0.1c-0.1,0-0.1,0-0.1,0c-0.1,0-0.3-0.2-0.3-0.4c0-0.1,0.2-0.2,0.7-0.3
			c0.4-0.2,0.9-0.7,1-1.2c0.2-0.3,0.2-0.9,0.2-0.7c0-0.1,0-0.1,0-0.2c0-0.1,0-0.1,0-0.2c0-0.1,0-0.1,0-0.1c0-0.1,0.1-0.1,0.1-0.2
			c0-0.1,0-0.1,0-0.2c0,0,0-0.1,0-0.1c0,0,0-0.1,0-0.1c0,0,0,0,0-0.1c0-0.1-0.1-0.1-0.1-0.2c0-0.1,0-0.1,0-0.2c0-0.1,0-0.2,0-0.3
			c0-0.1,0-0.2,0-0.2c0-0.1-0.1-0.1-0.1-0.2c0-0.1,0-0.1,0-0.1c0-0.1-0.2-0.1-0.3-0.1c-0.2,0-0.2,0.3-0.4,0.3c0,0-0.1,0-0.1,0
			c-0.1,0-0.1,0.1-0.2,0.2c0,0-0.1,0-0.1,0c-0.2,0-0.3,0.1-0.4,0.1c-0.1,0-0.1-0.3-0.1-0.4c0-0.1,0.3-0.2,0.3-0.3
			c0,0,0.1-0.2,0.2-0.2c0.1,0,0.1,0.1,0.2,0.1c0.1,0,0.2,0,0.2-0.1c0-0.1-0.1-0.1-0.1-0.2c0-0.1,0.1-0.1,0.2-0.2
			c0-0.1-0.1-0.1-0.1-0.2c0-0.1,0.2-0.2,0.3-0.2c0.1,0,0.2,0,0.2,0.1C50.3,25.5,50.2,25.5,50.1,25.5C50.1,25.5,50.1,25.5,50.1,25.5z
			 M51.2,26.8C51.2,26.9,51.1,26.9,51.2,26.8c-0.1,0-0.1,0-0.1,0C51.1,26.8,51.1,26.8,51.2,26.8C51.1,26.8,51.1,26.8,51.2,26.8
			C51.2,26.8,51.2,26.8,51.2,26.8z"/>
		<path class="st48" d="M53.2,29.3L53.2,29.3L53.2,29.3c0.1,0.3,1.1,0.1,1.2,0.1c0.1,0,0.2-0.2,0.2-0.2c0.2-0.2,0.2-0.4,0.4-0.6
			c0.1-0.1,0.1-0.1,0.2-0.2c0-0.2,0.3-0.3,0.4-0.8c0-0.2,0.2-0.3,0.2-0.4c0.1-0.2,0.2-0.5,0.2-0.6c0-0.2-0.1-0.3-0.1-0.3
			c0,0-0.1,0-0.1,0c-0.1,0-0.1-0.1-0.1-0.1c0,0,0,0,0,0c-0.1,0-0.1,0.1-0.2,0.1h0c-0.1,0-0.1,0-0.1,0c0,0,0,0,0,0c0-0.1,0-0.1,0-0.2
			c0,0-0.1-0.1-0.1-0.2c0-0.1,0-0.1,0-0.2c0-0.1-0.1-0.2-0.1-0.3c0-0.1,0-0.1,0-0.1c0-0.1,0.4,0.1,0.3,0.1c0.9,0,1.1,0.3,1.2,0.4
			c0.1,0.1,0.2,0.2,0.2,0.2c0,0.4-0.1,0.8-0.2,1c-0.1,0.2-0.1,0.2-0.2,0.4c0,0.1-0.1,0.1-0.1,0.3c0,0.1,0,0.2,0,0.3
			c0,0.1-0.1,0.2-0.1,0.3c0,0,0,0.1,0,0.1c0,0.1-0.2,0.5-0.2,0.5c0,0.1-0.1,0.1-0.2,0.1c-0.1,0.1,0,0.2-0.2,0.3
			c-0.2,0.1-0.1,0.1-0.2,0.2c-0.1,0.1-0.1,0-0.2,0.2c-0.1,0.2-0.2,0-0.4,0.3c0,0-0.1,0.1-0.1,0.1c0,0.1,0.1,0.1,0.1,0.2
			c0,0.2-0.2,0.2-0.2,0.3v0.1c0,0.1-0.2,0.2-0.3,0.2c-0.1,0-0.1-0.1-0.2-0.1c0,0,0,0,0,0.1c0,0,0,0.1,0,0.1c0,0.1-0.1,0.1-0.1,0.1
			c0,0,0,0.1,0,0.1c0,0.1-0.8-0.1-0.8-0.1c-0.2,0-0.3-0.2-0.5-0.6c-0.1-0.1,0-0.2-0.2-0.2c-0.2-0.3-0.1,0.1-0.3-0.6
			c0-0.1-0.1-0.1-0.1-0.2c0,0,0,0,0,0c0-0.1,0-0.7,0-0.7c0-0.1,0.1-0.2,0.1-0.3c0-0.1,0-0.1,0-0.2c0-0.2,0.1,0,0.1-0.3
			c0-0.1-0.1-0.1-0.1-0.2c0-0.1,0.1-0.3,0.1-0.4c0-0.1-0.1-0.2-0.1-0.2c0-0.1,0.1-0.1,0.1-0.2c0-0.1-0.1-0.2-0.1-0.2
			c-0.1,0-0.1,0.1-0.2,0.1c-0.1,0-0.1-0.1-0.2-0.1h0c0-0.1,0.1-0.1,0.1-0.1c0-0.1,0-0.1,0-0.1c0-0.1,0.1-0.2,0.1-0.3
			c0-0.1-0.1-0.1-0.1-0.2c0-0.1,0.1-0.2,0.1-0.2c0-0.1-0.2-0.1-0.2-0.1c0.1,0,0.1-0.1,0.2-0.1c0,0,0.1,0,0.1,0
			c0.1,0,0.1-0.1,0.2-0.1c0.2,0,0.1,0.2,0.2,0.3c0.1,0,0.2,0,0.2,0.1c0,0.1-0.1,0.1-0.2,0.2h0c0,0,0.1,0,0.1,0h0
			c0.1,0,0.3,0.2,0.3,0.4c0,0.1,0,0.1,0,0.2c0,0.1,0.1,0.2,0.1,0.3c0,0.1,0,0.1,0,0.2c0,0.1,0,0.1,0,0.2c0,0-0.1,0.1-0.1,0.2
			c0,0.1,0,0.1,0.1,0.2c0,0.1-0.1,0.2-0.1,0.3c0,0.1,0,0.1,0,0.1c0,0.1-0.1,0.1-0.1,0.1c0,0.1,0.1,0.2,0.1,0.2
			c0,0.1-0.1,0.1-0.1,0.2c0,0.1,0.1,0.2,0.1,0.3c0,0.1-0.2,0-0.2,0.4C53.3,29.2,53.2,29.2,53.2,29.3C53.2,29.3,53.2,29.3,53.2,29.3z
			 M53.2,29.3C53.2,29.3,53.2,29.3,53.2,29.3C53.2,29.3,53.2,29.3,53.2,29.3z"/>
		<path class="st48" d="M60.9,29.4c0,0.1,0,0.1,0,0.2c0,0.1-0.1,0.1-0.3,0.2c-0.1,0,0,0.1-0.1,0.1c-0.1,0-0.1-0.1-0.2-0.1
			c-0.4,0.1-0.2,0-0.4,0c-0.1,0-0.2,0.1-0.2,0.1c0,0,0-0.1,0-0.1c0-0.2,0-0.3,0-0.5c0,0,0-0.1,0-0.2c0-0.4,0.2-0.3,0.3-0.6
			c0.1-0.3,0.1-0.6,0.1-0.7c0.1-0.2,0.2,0,0.2-0.3c0-0.2-0.1-0.3-0.1-0.5c0-0.1,0.1-0.1,0.1-0.2c0-0.1-0.2-0.2-0.2-0.3
			c-0.1-0.2,0-0.2-0.2-0.4c-0.1-0.1-0.2-0.2-0.4-0.2c-0.1,0-0.2,0-0.3,0c0,0-0.1,0-0.2,0c-0.1,0-0.1,0.1-0.4,0.1
			c-0.2,0.1-0.1,0.1-0.3,0.2c-0.1,0.1-0.7,0.2-0.8,0.2c0,0-0.1,0-0.1,0c-0.1,0-0.1,0-0.2,0c-0.1,0-0.1-0.2-0.2-0.2
			c-0.1,0-0.2,0-0.2-0.1c0-0.1,0.1-0.1,0.1-0.2c0-0.1,0-0.1,0-0.1c0-0.2,0.2-0.3,0.2-0.3c0,0,0.1,0,0.1,0c0.2,0,0.4-0.2,0.6-0.2
			c0.1,0,0.1-0.1,0.2-0.1c0.1,0,0.1,0.1,0.2,0.1c0.3,0,0.6-0.5,0.8-0.5c0.1,0,0.2,0,0.3,0c0.1,0,0.1,0.1,0.2,0.1c0,0,0,0,0,0
			c0.1,0,0-0.1,0.1-0.1c0.2,0,0.3,0.2,0.4,0.2c0,0,0.1,0,0.1,0c0.1,0,0.4,0.3,0.4,0.3c0.1,0.1,0.2,0.2,0.2,0.2
			c0,0.1,0.2,0.3,0.2,0.3c0,0.3,0.2,0.2,0.2,0.4c0,0.1-0.1,0.1-0.1,0.2c0,0,0,0.1,0,0.1c0,0.1,0,0.1,0,0.2c0,0.1,0.2,0.2,0.2,0.4
			c0,0.2-0.1,0.2-0.1,0.3c0,0.1,0,0.2,0,0.3c0,0.1-0.1,0.2-0.2,0.4c-0.1,0.1-0.1-0.3-0.1-0.2c0,0.1,0,0.1,0,0.2
			c0,0.1-0.1,0.1-0.1,0.2c0,0.1,0.1,0.1,0.1,0.2c0,0.1,0,0.3-0.1,0.4c0,0-0.1,0.1-0.1,0.1c0,0.1,0.1-0.4,0.1-0.3
			c0,0.1-0.1,0.1-0.1,0.2c0,0.1,0.1,0.2,0.1,0.3c0,0.3-0.2,0.3-0.2,0.3C60.9,29.2,60.9,29.3,60.9,29.4
			C60.9,29.3,60.9,29.3,60.9,29.4z M57.4,33.6c0-0.1,0-0.1,0-0.2c0-0.1,0-0.1,0-0.2c0-0.1,0.1-0.1,0.1-0.2c0,0,0-0.1,0-0.1
			c0,0,0-0.1,0-0.1l0.1-0.1c0-0.1,0.1-0.2,0.1-0.3c0-0.1,0-0.1,0-0.2c0,0,0-0.1,0-0.1c0-0.1,0-0.1,0-0.1c0-0.1,0.1-0.1,0.1-0.2
			c0-0.1,0-0.1,0-0.2c0-0.1,0.1-0.2,0.1-0.2l0.2-0.1c0-0.1,0.1-0.1,0.1-0.2c0-0.1-0.1-0.2-0.1-0.3c0-0.6,0.2-0.4,0.2-0.6
			c0,0,0-0.1,0-0.1c0-0.1,0.1-0.2,0.1-0.4c0-0.1,0-0.1,0-0.2c0-0.1,0.1-0.1,0.1-0.2c0-0.1-0.1-0.1-0.1-0.2c0-0.1,0.1-0.1,0.1-0.2
			c0-0.1,0-0.1,0-0.2c0-0.1,0-0.1,0-0.2c0-0.1-0.1-0.1-0.1-0.2c0-0.3,0.1-0.3,0.1-0.4c0-0.2,0.1-0.3,0.4-0.5c0,0,0.1-0.1,0.2-0.1
			c0.1,0,0.1,0.4,0.1,0.6c0,0.4-0.1,0.9-0.1,1.3c0,0.2-0.1,0.5-0.1,0.7c0,0.2-0.1,0.5-0.1,0.7c0,0.1,0,0.2,0,0.4l-0.1,0.5
			c0,0.1-0.1,0.2-0.1,0.2c0,0.1,0,0.2,0,0.3c0,0.1,0,0.2,0,0.2c0,0.1,0,0.2,0,0.3c0,0.1,0,0.2,0,0.3c0,0.4-0.4,0.8-0.5,0.8
			c0,0-0.3,0.2-0.4,0.2c-0.1,0-0.1-0.1-0.1-0.1C57.4,33.7,57.4,33.7,57.4,33.6z"/>
		<path class="st48" d="M64.4,22.4c0,0.4-0.2,0.8-0.2,0.8c-0.5,1-0.1,0.7-0.3,1.1c0,0.1-0.1,0.1-0.1,0.3c0,0.2-0.1,0.1-0.1,0.2
			c0,0.1,0,0.1,0,0.2c0,0,0,0.1,0,0.2c0,0,0,0.1,0,0.1c0,0.2-0.1,0.4-0.1,0.5c0,0.1,0,0.2,0.1,0.2c0.2,0,0.3-0.2,0.4-0.2
			c0.1,0,0.1,0,0.2,0c0.1,0,0.4-0.2,0.5-0.2c0.1,0,0.2,0,0.3,0c0.6-0.2,0.4-0.2,0.7-0.3c0,0,0.1,0,0.1,0c0.1,0,0.1,0.1,0.2,0.1
			c0.1,0,0.2,0,0.3,0c0.4,0,0.2,0.2,0.4,0.2c0.1,0,0.1,0.2,0.1,0.2c0,0.1,0.1,0.1,0.1,0.1c0,0.6,0.3,0.5,0.3,0.8
			c0,0.1-0.1,0.2-0.1,0.3c0,0.1,0.1,0.1,0.1,0.2c0,0.1-0.1,0.1-0.1,0.1c0,0.1,0.1,0.1,0.1,0.2c0,0.1,0,0.1,0,0.1
			c0,0.1,0.1,0.1,0.1,0.2c0,0.1-0.1,0.2-0.1,0.3c0,0.1,0,0.1,0,0.2c0,0.2-0.3,0.4-0.3,0.4c0,0,0,0-0.1,0c0,0,0,0-0.1,0
			c0,0-0.1,0.1-0.1,0.1c0,0,0.1,0.1,0.1,0.1c0,0-0.2,0.4-0.2,0.4c0,0,0,0-0.1,0c-0.2,0-0.4,0.3-0.4,0.3c-0.1,0.1-0.2,0.3-0.5,0.3
			c-0.1,0-0.1-0.1-0.2-0.1c-0.1,0-0.3,0.2-0.4,0.2c-0.1,0-0.1,0-0.2,0c0,0-0.3,0.3-0.6,0.4c0,0-0.1,0-0.1,0c-0.1,0-0.1,0-0.1,0
			c-0.1,0-0.1,0-0.2,0c-0.3,0-0.2,0.3-0.4,0.3c-0.1,0-0.2-0.1-0.3-0.1c-0.1,0-0.1,0.1-0.3,0.1c-0.2,0-0.4-0.1-0.4-0.2
			c0-0.1,0.2-0.1,0.2-0.1c0-0.1-0.1-0.1-0.1-0.2c0-0.1,0.1-0.3,0.2-0.3c0,0,0.1,0,0.2,0c0.1,0,0.1-0.1,0.2-0.1c0,0,0.1,0,0.2,0
			c0.1,0,0.1-0.1,0.2-0.1c0.2,0,0.3,0.1,0.5,0.1c0.3-0.1,0-0.3,0.6-0.3c0.1,0,0.2-0.1,0.3-0.1c0.1,0,0.1,0,0.2,0
			c0.1,0,0.3-0.2,0.3-0.2c0,0,0.1,0,0.1,0c0.1,0,0.5-0.4,0.5-0.5c0-0.1,0.2-0.2,0.2-0.4c0-0.3,0.1-0.2,0.1-0.6
			c0-0.2,0.1-0.5,0.1-0.6c0-0.1-0.1-0.3-0.1-0.3c-0.1-0.3-0.5-0.6-0.7-0.6c-0.2,0-0.2,0.2-0.3,0.2c0,0-0.1,0-0.1,0
			c-0.1,0-0.1,0-0.2,0c0,0-0.1,0-0.1,0c0,0-0.1,0-0.2,0c0,0-0.1,0-0.1,0c-0.2,0-0.4,0.2-0.5,0.2c0,0-0.1,0-0.1,0
			c-0.1,0-0.1,0.1-0.2,0.1c0,0-0.1,0-0.1,0c-0.2,0-0.2,0.2-0.3,0.2c-0.1,0-0.1-0.1-0.2-0.2c0,0-0.1,0-0.2,0c-0.1,0-0.1-0.1-0.2-0.1
			c0,0-0.1,0.1-0.1,0.1c-0.1,0-0.3-0.1-0.3-0.2c0-0.2,0.2-0.1,0.2-0.6c0-0.1,0-0.1-0.1-0.2c0-0.5,0.4-0.7,0.4-1.3c0-0.1,0-0.1,0-0.1
			c0-0.2,0.2-0.3,0.2-0.3c-0.1-0.2,0.4-0.2,0.4-0.9C63.7,22.5,64.1,22.3,64.4,22.4C64.4,22.3,64.4,22.3,64.4,22.4
			C64.4,22.3,64.4,22.3,64.4,22.4z"/>
		<path class="st48" d="M75.4,25.6c0,0,0,0.1,0,0.1c0,0.3,0.4,0.1,0.4,0.7c0,0.1-0.1,0.1-0.1,0.2c0,0,0,0.1,0,0.2c0,0.1,0,0.1,0,0.2
			c0,0,0,0.1,0,0.1c0,0.1-0.1,0.4-0.1,0.6c0,0.1-0.1,0.2-0.1,0.3c0,0.2,0.1,0.2,0.1,0.4c0,0.3-0.2,0.4-0.2,0.5
			c0,0.1,0.1,0.2,0.1,0.2c0,0.2-0.2,0.2-0.2,0.4c0,0.1,0,0.1,0,0.2c0,0.3-0.3,0.5-0.3,0.5c0,0-0.1,0.4-0.2,0.4c0,0-0.3,0.1-0.3,0.2
			c0,0.1,0.1,0.1,0.1,0.2s-0.1,0.1-0.1,0.1c-0.1,0-0.1-0.1-0.3-0.1c-0.4,0-0.1-0.4-0.4-0.4c0,0-0.1,0-0.1,0c-0.1,0-0.2-0.1-0.3-0.1
			c0,0-0.1,0-0.1,0c-0.1,0-0.1-0.1-0.2-0.1c-0.1,0-0.5,0.2-0.5,0.2c-0.1,0-0.3,0.1-0.4,0.1c-0.1,0-0.1,0-0.2,0
			c-0.3,0-0.4,0.3-0.5,0.3c-0.1,0-0.1-0.1-0.1-0.2c0,0-0.1,0-0.1-0.1c-0.1-0.1,0-0.2-0.2-0.2c-0.1,0-0.1,0-0.2,0
			c-0.1,0-0.1,0-0.1-0.1c0-0.1,0.1-0.1,0.1-0.2c0,0,0-0.1,0-0.1c0-0.2,0.1-0.4,0.1-0.6c0-0.2-0.2-0.3-0.2-0.5c0-0.1,0.1-0.1,0.1-0.3
			c0-0.1,0-0.1,0-0.2c0-0.2,0.2-0.2,0.2-0.5c0-0.1,0-0.1,0-0.2c0-0.1,0.1-0.3,0.1-0.4c0-0.1-0.1-0.2-0.1-0.2c0-0.2,0-0.4,0-0.5
			c0-0.1,0-0.1,0-0.2c0-0.3,0.1-0.4,0.1-0.9c0-0.1-0.1-0.2-0.1-0.3c0-0.1,0.1-0.1,0.1-0.1c0.3,0,0.4,0.3,0.8,0.3
			c0.1,0,0.2-0.1,0.2-0.1v0l0,0c0.1-0.1,0.4-0.1,0.5-0.2c0.1-0.1,0.5-0.2,0.7-0.2c0.1,0,0.2,0.1,0.4,0.1c0.1,0,0.4-0.1,0.5-0.1
			c0.1,0,0.2-0.1,0.3-0.1c0.4,0,0.3,0.3,0.4,0.4C75.1,25.4,75.3,25.4,75.4,25.6z M74.5,28.9c0.1-0.8,0.1-0.6,0.2-0.7
			c0,0,0.1-0.4,0.1-0.5c0-0.3-0.1-0.5-0.1-0.7c0,0,0-0.1,0-0.1c0,0,0-0.1,0-0.1c0-0.1,0.1-0.2,0.1-0.3c0-0.4-0.1-0.6-0.3-0.6
			c-0.1,0-0.3,0.1-0.4,0.1c-0.2,0-0.3,0-0.5,0.1c-0.1,0-0.2,0-0.4,0c-0.2,0-0.2,0.1-0.4,0.1c-0.2,0-0.6,0.1-0.6,0.4c0,0,0,0.1,0,0.2
			c0,0.1-0.1,0.2-0.1,0.2c0,0.1,0.1,0.2,0.1,0.3c0,0.3-0.2,0.2-0.2,0.4c0,0.1,0,0.1,0,0.2c0,0.1-0.1,0.1-0.1,0.2c0,0.1,0,0.2,0,0.3
			c0,0.1-0.1,0.1-0.1,0.2c0,0.1,0.1,0.1,0.1,0.2c0,0.1-0.1,0.2-0.1,0.2c0,0.5,0.1,0.8,0.2,0.8c0.1,0,0.2,0,0.2,0c0,0,0.1,0,0.1,0
			c0.2,0,0.4-0.1,0.4-0.2c0.1,0,0.3,0,0.3,0c0.1,0,0.1,0.1,0.2,0.1c0.1,0,0.1-0.1,0.1-0.1c0.1,0,0.1,0.1,0.2,0.1c0,0,0.1,0,0.1,0
			c0.1,0,0.3,0.1,0.5,0.1c0,0,0-0.1,0-0.1c0-0.1,0-0.1,0-0.2c0,0,0-0.1,0-0.1C74.4,29.1,74.5,29.1,74.5,28.9z"/>
		<path class="st48" d="M77,28.9c-0.1,0-0.1,0.1-0.2,0.1c0,0-0.1,0-0.1-0.1c0,0,0,0,0,0c-0.1,0-0.1-0.1-0.1-0.1c0,0-0.1,0-0.1,0.1
			c-0.1,0.1-0.1,0.1-0.3,0.1c0-0.1,0-0.1,0.1-0.1c0,0,0.1-0.1,0.1-0.1c0-0.1,0-0.1,0-0.1c0,0,0-0.1,0.1-0.2c0-0.1,0-0.1,0.1-0.1
			c0,0,0.1,0,0.1-0.1c0,0,0-0.1,0.1-0.1c0.1,0,0.1,0,0.2,0c0,0,0.1-0.1,0.1-0.1c0-0.1,0-0.1,0.1-0.2c0-0.1,0.1-0.1,0.1-0.1
			c0-0.1,0-0.2,0.1-0.2c0.1,0,0.1,0,0.2,0c0,0,0,0,0,0c0,0,0,0,0,0c0,0,0,0,0,0c0,0,0,0,0-0.1c0,0,0.1,0,0.1-0.1
			c0.1-0.1,0.1-0.1,0.1-0.2c0-0.1,0.1-0.1,0.1-0.1c0-0.1,0-0.2-0.1-0.3c0-0.1,0-0.1,0-0.2c0-0.1-0.1-0.2-0.1-0.2c0,0,0,0-0.1-0.1
			c0,0-0.1,0-0.1,0c0,0-0.1-0.1-0.1-0.1c0,0,0,0,0,0c0,0,0,0,0,0c0,0-0.1,0-0.1-0.1c0,0,0,0-0.1,0c0,0,0,0,0,0c0,0,0,0,0,0
			c0,0,0,0,0,0c0,0,0,0,0,0c0,0,0,0,0,0c-0.1,0-0.2-0.2-0.1-0.4c0,0,0,0,0,0c0-0.1,0.2-0.1,0.3-0.1c0,0,0,0,0.1,0c0,0,0.1,0,0.1,0
			c0,0,0.1,0,0.1,0c0.1,0,0.1,0,0.2,0c0.1,0,0.1,0,0.2,0.1c0,0,0,0,0.1,0c0,0,0,0,0,0c0,0,0,0,0,0c0,0,0,0,0,0c0,0,0.1,0.1,0.1,0.1
			c0.1,0,0.2,0,0.2,0c0.1,0,0.1,0.1,0.2,0.2c0.1,0,0.1,0,0.2,0c0,0,0.1,0.1,0.1,0.1c0.1,0.1,0.1,0.1,0.2,0.1c0,0,0,0,0,0.1
			c0,0,0,0,0,0.1c0,0,0,0,0,0c0,0,0,0.1,0,0.1c0,0.1,0,0.1,0,0.2c0,0.1,0.1,0.1,0.1,0.2c0,0,0,0.1,0,0.1c0,0,0,0.1,0,0.1
			c0,0,0,0.1,0,0.1c0,0,0,0,0,0.1c0,0.1-0.1,0.1-0.2,0.2c0,0,0,0.1,0,0.1c0,0.1,0,0.1-0.1,0.1c0,0-0.1,0.1-0.1,0.1
			c-0.1,0.1-0.1,0.1-0.2,0.2c0,0,0,0.1-0.1,0.1c0,0.1-0.2,0.1-0.2,0.1c0,0,0,0.1,0,0.1c0,0,0,0.1,0,0.1c0,0,0,0.1-0.1,0.1
			c0,0,0,0.1-0.1,0.1c0,0-0.1,0.1-0.1,0.1c0,0-0.1,0.1-0.1,0.1c0,0,0,0,0,0.1c0,0,0,0,0,0.1c0,0,0,0,0,0.1c0,0.1,0,0.1-0.1,0.2
			C77.2,28.9,77.2,28.9,77,28.9z M76.5,28.6C76.5,28.6,76.5,28.6,76.5,28.6c0.1,0,0.1,0,0.1-0.1c0,0-0.1-0.1-0.1,0
			C76.5,28.5,76.5,28.5,76.5,28.6z"/>
		<path class="st48" d="M80.1,28.9c-0.1,0-0.1,0.1-0.2,0.1c0,0-0.1,0-0.1-0.1c0,0,0,0,0,0c-0.1,0-0.1-0.1-0.1-0.1c0,0-0.1,0-0.1,0.1
			c-0.1,0.1-0.1,0.1-0.3,0.1c0-0.1,0-0.1,0.1-0.1c0,0,0.1-0.1,0.1-0.1c0-0.1,0-0.1,0-0.1c0,0,0-0.1,0.1-0.2c0-0.1,0-0.1,0.1-0.1
			c0,0,0.1,0,0.1-0.1c0,0,0-0.1,0.1-0.1c0.1,0,0.1,0,0.2,0c0,0,0.1-0.1,0.1-0.1c0-0.1,0-0.1,0.1-0.2c0-0.1,0.1-0.1,0.1-0.1
			c0-0.1,0-0.2,0.1-0.2c0.1,0,0.1,0,0.2,0c0,0,0,0,0,0c0,0,0,0,0,0c0,0,0,0,0,0c0,0,0,0,0-0.1c0,0,0.1,0,0.1-0.1
			c0.1-0.1,0.1-0.1,0.1-0.2c0-0.1,0.1-0.1,0.1-0.1c0-0.1,0-0.2-0.1-0.3c0-0.1,0-0.1,0-0.2c0-0.1-0.1-0.2-0.1-0.2c0,0,0,0-0.1-0.1
			c0,0-0.1,0-0.1,0c0,0-0.1-0.1-0.1-0.1c0,0,0,0,0,0c0,0,0,0,0,0c0,0-0.1,0-0.1-0.1c0,0,0,0-0.1,0c0,0,0,0,0,0c0,0,0,0,0,0
			c0,0,0,0,0,0c0,0,0,0,0,0c0,0,0,0,0,0c-0.1,0-0.2-0.2-0.1-0.4c0,0,0,0,0,0c0-0.1,0.2-0.1,0.3-0.1c0,0,0,0,0.1,0c0,0,0.1,0,0.1,0
			c0,0,0.1,0,0.1,0c0.1,0,0.1,0,0.2,0c0.1,0,0.1,0,0.2,0.1c0,0,0,0,0.1,0c0,0,0,0,0,0c0,0,0,0,0,0c0,0,0,0,0,0c0,0,0.1,0.1,0.1,0.1
			c0.1,0,0.2,0,0.2,0c0.1,0,0.1,0.1,0.2,0.2c0.1,0,0.1,0,0.2,0c0,0,0.1,0.1,0.1,0.1c0.1,0.1,0.1,0.1,0.2,0.1c0,0,0,0,0,0.1
			c0,0,0,0,0,0.1c0,0,0,0,0,0c0,0,0,0.1,0,0.1c0,0.1,0,0.1,0,0.2c0,0.1,0.1,0.1,0.1,0.2c0,0,0,0.1,0,0.1c0,0,0,0.1,0,0.1
			c0,0,0,0.1-0.1,0.1c0,0,0,0,0,0.1c0,0.1-0.1,0.1-0.2,0.2c0,0,0,0.1,0,0.1c0,0.1,0,0.1-0.1,0.1c0,0-0.1,0.1-0.1,0.1
			c-0.1,0.1-0.1,0.1-0.2,0.2c0,0,0,0.1-0.1,0.1c-0.1,0.1-0.2,0.1-0.2,0.1c0,0,0,0.1,0,0.1c0,0,0,0.1,0,0.1c0,0,0,0.1-0.1,0.1
			c0,0,0,0.1-0.1,0.1c0,0-0.1,0.1-0.1,0.1c0,0-0.1,0.1-0.1,0.1c0,0,0,0,0,0.1c0,0,0,0,0,0.1c0,0,0,0,0,0.1c0,0.1,0,0.1-0.1,0.2
			C80.3,28.9,80.2,28.9,80.1,28.9z M79.6,28.6C79.6,28.6,79.6,28.6,79.6,28.6c0.1,0,0.1,0,0.1-0.1c0,0-0.1-0.1-0.1,0
			C79.5,28.5,79.6,28.5,79.6,28.6z"/>
		<path class="st48" d="M86.8,25.3c0.2,0.1,0.4,0.4,0.4,0.8c0,0.1-0.1,0.2-0.1,0.2c0,0.1,0.1,0.1,0.1,0.2c0,0.7-0.1,0.8-0.1,0.8
			c0,0,0,0,0,0c0,0,0,0,0,0l0,0c0,0.6-0.4,0.7-0.4,1c0,0,0,0.1,0,0.1c0,0.1-0.3,0.4-0.3,0.4c0,0.3-0.1,0.3-0.2,0.4
			c-0.1,0.1,0,0.2-0.2,0.2c-0.2,0-0.1,0.2-0.2,0.2c-0.1,0-0.1,0.2-0.3,0.2c-0.2,0.1-0.1,0.1-0.3,0.3c-0.1,0-0.1,0-0.1,0.1
			c-0.1,0.1,0,0.2-0.2,0.2c0,0,0,0-0.1,0c-0.1,0-0.2,0.2-0.3,0.2c-0.1,0-0.4,0.1-0.5,0.2c-0.1,0-0.1,0.1-0.1,0.1c-0.1,0-0.1,0-0.2,0
			c0,0-0.1,0-0.1,0c-0.2,0-0.5-0.2-0.5-0.2c0,0,0,0,0,0c-0.2,0-0.3-0.7-0.3-0.7c0-0.1-0.1-0.1-0.1-0.2c0,0,0-0.1,0-0.2
			c0-0.1-0.1-0.2-0.1-0.3c0-0.1,0-0.2,0-0.3c0-0.1-0.1-0.3-0.1-0.4c0,0,0-0.1,0-0.1c0-0.1,0-0.1,0-0.2c0-0.1,0-0.1,0-0.2
			c0-0.1,0-0.1,0-0.2c0,0,0,0,0-0.1c0-0.1,0-0.1,0-0.2c0-0.1,0-0.2,0.1-0.3c0-0.1-0.1-0.1-0.1-0.1c0,0,0-0.1,0-0.1
			c0-0.1,0-0.1,0-0.1c0,0,0-0.1,0-0.1c0-0.1,0-0.1,0-0.2c0-0.1,0.1-0.2,0.1-0.3c0-0.1-0.1-0.1-0.1-0.2c0-0.1,0-0.2,0-0.4
			c0-0.1,0-0.1,0-0.2c0-0.5,0.2-0.5,0.3-0.5c0,0,0,0,0,0c0.1,0,0.1,0,0.2,0c0.4,0,0.1,0.2,0.4,0.9c0,0,0,0.1,0,0.1
			c0,0.3,0.2,0.3,0.2,0.5c0,0.1-0.1,0.2-0.1,0.3c0,0.3,0,0.7,0.1,0.7c0.1,0,0.3-0.3,0.3-0.3s0,0,0,0c0-0.1,0.1-0.2,0.1-0.2
			c0.4-0.7,0.2-0.3,0.4-0.8c0-0.1,0.1-0.7,0.4-0.8c0.1,0,0.1,0,0.1,0c0.1,0,0.2-0.1,0.2-0.1c0.1,0,0.1,0.1,0.2,0.2
			c0.1,0,0.2,0,0.2,0.3c-0.1,0.3-0.1,0.6-0.2,0.7c-0.1,0.1-0.3,0.3-0.3,0.4c0,0.2-0.2,0.1-0.2,0.3c0,0-0.2,0.1-0.2,0.3
			c-0.1,0.1-0.1,0.5-0.3,0.5c-0.1,0-0.2,0.3-0.2,0.3c0,0,0,0.1,0,0.1c0,0.1-0.2,0.3-0.2,0.3c-0.1,0-0.1-0.1-0.2-0.2
			c-0.1,0-0.2,0.1-0.2,0.3c0,0.1,0.1,0.2,0.1,0.2c0,0,0,0.1,0,0.1c0,0.2,0.1,0.3,0.1,0.8c0,0.1,0.1,0.2,0.2,0.2
			c0.1,0,0.8-0.4,1.1-0.6c0.3-0.2,0.5-0.6,0.5-0.5c0-0.1,0.2-0.2,0.3-0.3c0,0,0,0,0,0c0-0.1,0.1-0.2,0.2-0.3c0.4-1,0.4-1.5,0.4-1.6
			c0,0,0-0.1,0-0.1c0-0.1,0-0.1,0-0.2c0-0.2,0-0.6-0.1-0.8c0-0.1-0.1-0.2-0.1-0.3c0-0.1,0.1-0.2,0.2-0.2c0,0,0.1,0,0.1,0
			c0.1,0,0.2-0.1,0.3-0.1C86.7,25,86.8,25.2,86.8,25.3z"/>
		<path class="st48" d="M88.6,28.9c-0.1,0-0.1,0.1-0.2,0.1c0,0-0.1,0-0.1-0.1c0,0,0,0,0,0c-0.1,0-0.1-0.1-0.1-0.1c0,0-0.1,0-0.1,0.1
			c-0.1,0.1-0.1,0.1-0.3,0.1c0-0.1,0-0.1,0.1-0.1c0,0,0.1-0.1,0.1-0.1c0-0.1,0-0.1,0-0.1c0,0,0-0.1,0.1-0.2c0-0.1,0-0.1,0.1-0.1
			c0,0,0.1,0,0.1-0.1c0,0,0-0.1,0.1-0.1c0,0,0.1,0,0.2,0c0,0,0.1-0.1,0.1-0.1c0-0.1,0-0.1,0.1-0.2c0-0.1,0.1-0.1,0.1-0.1
			c0-0.1,0-0.2,0.1-0.2c0.1,0,0.1,0,0.2,0c0,0,0,0,0,0c0,0,0,0,0,0c0,0,0,0,0,0c0,0,0,0,0-0.1c0,0,0.1,0,0.1-0.1
			c0.1-0.1,0.1-0.1,0.1-0.2c0-0.1,0-0.1,0-0.1c0-0.1,0-0.2,0-0.3c0-0.1,0-0.1,0-0.2c0-0.1-0.1-0.2-0.1-0.2c0,0,0,0-0.1-0.1
			c0,0-0.1,0-0.1,0c0,0-0.1-0.1-0.1-0.1c0,0,0,0,0,0c0,0,0,0,0,0c0,0-0.1,0-0.1-0.1c0,0,0,0-0.1,0c0,0,0,0,0,0c0,0,0,0,0,0
			c0,0,0,0,0,0c0,0,0,0,0,0c0,0,0,0,0,0c-0.1,0-0.2-0.2-0.1-0.4c0,0,0,0,0,0c0-0.1,0.2-0.1,0.3-0.1c0,0,0,0,0.1,0c0,0,0.1,0,0.1,0
			c0,0,0.1,0,0.1,0c0.1,0,0.1,0,0.2,0c0.1,0,0.1,0,0.2,0.1c0,0,0,0,0.1,0c0,0,0,0,0,0c0,0,0,0,0,0c0,0,0,0,0,0c0,0,0.1,0.1,0.1,0.1
			c0.1,0,0.2,0,0.2,0c0.1,0,0.1,0.1,0.2,0.2c0.1,0,0.1,0,0.2,0c0,0,0.1,0.1,0.1,0.1c0.1,0.1,0.1,0.1,0.2,0.1c0,0,0,0,0,0.1
			c0,0,0,0,0,0.1c0,0,0,0,0,0c0,0,0,0.1,0,0.1c0,0.1,0,0.1,0,0.2c0,0.1,0.1,0.1,0.1,0.2c0,0,0,0.1,0,0.1c0,0,0,0.1,0,0.1
			c0,0,0,0.1,0,0.1c0,0,0,0,0,0.1c0,0.1-0.1,0.1-0.2,0.2c0,0,0,0.1,0,0.1c0,0.1,0,0.1-0.1,0.1c0,0-0.1,0.1-0.1,0.1
			c-0.1,0.1-0.1,0.1-0.2,0.2c0,0,0,0.1-0.1,0.1c0,0.1-0.2,0.1-0.2,0.1c0,0,0,0.1,0,0.1c0,0,0,0.1,0,0.1c0,0,0,0.1-0.1,0.1
			c0,0,0,0.1-0.1,0.1c0,0-0.1,0.1-0.1,0.1c0,0-0.1,0.1-0.1,0.1c0,0,0,0,0,0.1c0,0,0,0,0,0.1c0,0,0,0,0,0.1c0,0.1,0,0.1-0.1,0.2
			C88.8,28.9,88.7,28.9,88.6,28.9z M88.1,28.6C88.1,28.6,88.1,28.6,88.1,28.6c0.1,0,0.1,0,0.1-0.1c0,0,0-0.1-0.1,0
			C88,28.5,88.1,28.5,88.1,28.6z"/>
		<path class="st48" d="M95.8,25.3c0,0.3,0,0.6-0.2,0.7c0,0.1,0,0.1-0.1,0.2c-0.1,0.1-0.1,0.1-0.1,0.3c0,0.2-0.1,0.6-0.3,0.6
			c0,0-0.1,0-0.1,0c-0.1,0-0.1,0-0.1,0.1c0,0,0,0,0,0.1c0,0.2-0.3,0-0.3,0.4c0,0.2,0.4,0.6,0.6,0.9c0.1,0.3,0.4,0.3,0.5,0.5
			c0,0.1,0,0.1,0.1,0.2c0.1,0.2,0.3,0.3,0.3,0.4c0,0.1-0.1,0.1-0.2,0.2c-0.1,0.1-0.1,0.2-0.2,0.2c0,0-0.1,0-0.1,0
			c-0.1,0-0.1,0.2-0.4,0.2C95,30.1,95,29.8,95,29.8c-0.1-0.3-0.1-0.5-0.3-0.5c-0.1-0.1-0.1-0.2-0.2-0.2c0,0-0.3-0.2-0.3-0.3
			c-0.1,0-0.1-0.1-0.3-0.1c0,0-0.1,0-0.1-0.1c-0.1-0.1-0.1-0.2-0.1-0.3c-0.1-0.1-0.2-0.2-0.3-0.4c0-0.1,0-0.1-0.1-0.2
			c0,0,0-0.1-0.1-0.2c-0.1-0.2-0.3-0.2-0.4-0.2c-0.1,0-0.1-0.1-0.2-0.1c0,0-0.1,0-0.1,0c-0.1,0-0.1-0.1-0.1-0.1c0,0,0-0.1,0-0.1
			c0-0.2-0.1-0.3-0.2-0.4c-0.1,0-0.2,0.3-0.2,0.4c0,0.1,0,0.2,0,0.2c0,0.1-0.1,0.2-0.1,0.2c0,0,0,0,0,0c0,0.1,0,0.1,0,0.2
			c0,0.1,0,0.2,0,0.3c0,0.1,0,0.1,0,0.2c0,0.1,0,0.2,0,0.3c0,0.2-0.1,0.2-0.1,0.3c0,0.1,0,0.1,0,0.2c0,0.1,0,0.1,0,0.2
			c0,0,0,0.1,0,0.1c0,0.1,0,0.1,0,0.2c0,0.1,0,0.2,0,0.3c0,0.1,0,0.2,0,0.3c0,0.2,0,0.3-0.1,0.4c-0.1,0.1-0.2,0.2-0.3,0.2
			c-0.1,0-0.1-0.1-0.2-0.1c-0.1,0-0.1,0.1-0.3,0.1c-0.1-0.1-0.1-0.4-0.2-0.5c0-0.1-0.1-0.1-0.1-0.2c0,0,0-0.1,0-0.1c0,0,0-0.1,0-0.1
			c0-0.1,0.2-0.3,0.2-0.4c0-0.1,0.1-0.2,0.1-0.3c0-0.1-0.1-0.2-0.1-0.4c0,0,0,0,0-0.1c0-0.1,0-0.1,0-0.2c0-0.1,0.1-0.1,0.1-0.2
			c0-0.1-0.1-0.1-0.1-0.4c0-0.1,0.1-0.2,0.1-0.4c0-0.1,0-0.1,0-0.2c0-0.1,0.1-0.2,0.1-0.4c0,0,0-0.1,0-0.1c0-0.2,0.2-0.6,0.2-0.9
			c0-0.1,0.1-0.1,0.1-0.2c0-0.1,0-0.1,0-0.2c0.1-0.1,0.2-0.1,0.3-0.2c0,0,0.1-0.1,0.2-0.1s0.1,0,0.1,0c0.1,0,0.1-0.1,0.2-0.1
			c0.1,0,0.2,0,0.2,0.1c0,0,0,0.1,0,0.1c0,0.1,0,0.1,0.1,0.2c0,0.1,0,0.1,0.1,0.2c0.1,0.1,0.2,0.2,0.3,0.3c0.1,0.1,0.6,0.6,0.7,0.8
			c0,0.1,0.1,0.2,0.2,0.2c0.1,0,0.3-0.1,0.3-0.3c0-0.1,0.1-0.2,0.2-0.3c0-0.2,0.1-0.1,0.1-0.2c0.1-0.1,0.1-0.1,0.2-0.1
			c0.1-0.2,0-0.5,0.1-0.7c0,0,0.1-0.1,0.1-0.1c0.1-0.2,0.1-0.3,0.3-0.4c0,0,0,0,0,0c0,0,0.2,0.1,0.4,0.1c0.1,0,0.1,0,0.2-0.1
			c0.1,0,0.3,0.1,0.3,0.2c0,0,0,0.1,0,0.1C95.9,25.1,95.8,25.1,95.8,25.3z"/>
		<path class="st48" d="M103.8,25.6c0,0,0,0.1,0,0.1c0,0.3,0.4,0.1,0.4,0.7c0,0.1-0.1,0.1-0.1,0.2c0,0,0,0.1,0,0.2
			c0,0.1,0,0.1,0,0.2c0,0,0,0.1,0,0.1c0,0.1-0.1,0.4-0.1,0.6c0,0.1-0.1,0.2-0.1,0.3c0,0.2,0.1,0.2,0.1,0.4c0,0.3-0.2,0.4-0.2,0.5
			c0,0.1,0.1,0.2,0.1,0.2c0,0.2-0.2,0.2-0.2,0.4c0,0.1,0,0.1,0,0.2c0,0.3-0.3,0.5-0.3,0.5c0,0-0.1,0.4-0.2,0.4c0,0-0.3,0.1-0.3,0.2
			c0,0.1,0.1,0.1,0.1,0.2s-0.1,0.1-0.1,0.1c-0.1,0-0.1-0.1-0.3-0.1c-0.4,0-0.1-0.4-0.4-0.4c0,0-0.1,0-0.1,0c-0.1,0-0.2-0.1-0.3-0.1
			c-0.1,0-0.1,0-0.1,0c-0.1,0-0.1-0.1-0.2-0.1c-0.1,0-0.5,0.2-0.5,0.2c-0.1,0-0.3,0.1-0.4,0.1c-0.1,0-0.1,0-0.2,0
			c-0.3,0-0.4,0.3-0.5,0.3c-0.1,0-0.1-0.1-0.1-0.2c0,0-0.1,0-0.1-0.1c-0.1-0.1,0-0.2-0.2-0.2c-0.1,0-0.1,0-0.2,0
			c-0.1,0-0.1,0-0.1-0.1c0-0.1,0.1-0.1,0.1-0.2c0,0,0-0.1,0-0.1c0-0.2,0.1-0.4,0.1-0.6c0-0.2-0.2-0.3-0.2-0.5c0-0.1,0.1-0.1,0.1-0.3
			c0-0.1,0-0.1,0-0.2c0-0.2,0.2-0.2,0.2-0.5c0-0.1,0-0.1,0-0.2c0-0.1,0.1-0.3,0.1-0.4c0-0.1-0.1-0.2-0.1-0.2c0-0.2,0-0.4,0-0.5
			c0-0.1,0-0.1,0-0.2c0-0.3,0.1-0.4,0.1-0.9c0-0.1-0.1-0.2-0.1-0.3c0-0.1,0.1-0.1,0.1-0.1c0.3,0,0.4,0.3,0.8,0.3
			c0.1,0,0.2-0.1,0.2-0.1v0l0,0c0.1-0.1,0.4-0.1,0.5-0.2c0.1-0.1,0.5-0.2,0.7-0.2c0.1,0,0.2,0.1,0.4,0.1c0.1,0,0.4-0.1,0.5-0.1
			c0.1,0,0.2-0.1,0.3-0.1c0.4,0,0.3,0.3,0.4,0.4C103.5,25.4,103.8,25.4,103.8,25.6z M102.9,28.9c0.1-0.8,0.1-0.6,0.2-0.7
			c0,0,0.1-0.4,0.1-0.5c0-0.3-0.1-0.5-0.1-0.7c0,0,0-0.1,0-0.1c0,0,0-0.1,0-0.1c0-0.1,0.1-0.2,0.1-0.3c0-0.4-0.1-0.6-0.3-0.6
			c-0.1,0-0.3,0.1-0.4,0.1c-0.2,0-0.3,0-0.5,0.1c-0.1,0-0.2,0-0.4,0c-0.2,0-0.2,0.1-0.4,0.1c-0.2,0-0.6,0.1-0.6,0.4c0,0,0,0.1,0,0.2
			c0,0.1-0.1,0.2-0.1,0.2c0,0.1,0.1,0.2,0.1,0.3c0,0.3-0.2,0.2-0.2,0.4c0,0.1,0,0.1,0,0.2c0,0.1-0.1,0.1-0.1,0.2c0,0.1,0,0.2,0,0.3
			c0,0.1-0.1,0.1-0.1,0.2c0,0.1,0.1,0.1,0.1,0.2c0,0.1-0.1,0.2-0.1,0.2c0,0.5,0.1,0.8,0.2,0.8c0.1,0,0.2,0,0.2,0c0,0,0.1,0,0.1,0
			c0.2,0,0.4-0.1,0.4-0.2c0.1,0,0.3,0,0.3,0c0.1,0,0.1,0.1,0.2,0.1c0.1,0,0.1-0.1,0.1-0.1c0.1,0,0.1,0.1,0.2,0.1c0,0,0.1,0,0.1,0
			c0.1,0,0.3,0.1,0.5,0.1c0,0,0.1-0.1,0.1-0.1c0-0.1,0-0.1,0-0.2c0,0,0-0.1,0-0.1C102.8,29.1,102.9,29.1,102.9,28.9z"/>
		<path class="st48" d="M105.5,28.9c-0.1,0-0.1,0.1-0.2,0.1c0,0-0.1,0-0.1-0.1c0,0,0,0,0,0c-0.1,0-0.1-0.1-0.1-0.1
			c0,0-0.1,0-0.1,0.1c-0.1,0.1-0.1,0.1-0.3,0.1c0-0.1,0-0.1,0.1-0.1c0,0,0.1-0.1,0.1-0.1c0-0.1,0-0.1,0-0.1c0,0,0-0.1,0.1-0.2
			c0-0.1,0-0.1,0.1-0.1c0,0,0.1,0,0.1-0.1c0,0,0-0.1,0.1-0.1c0,0,0.1,0,0.2,0c0,0,0-0.1,0.1-0.1c0-0.1,0-0.1,0.1-0.2
			c0-0.1,0.1-0.1,0.1-0.1c0-0.1,0-0.2,0.1-0.2c0.1,0,0.1,0,0.2,0c0,0,0,0,0,0c0,0,0,0,0,0c0,0,0,0,0,0c0,0,0,0,0-0.1
			c0,0,0.1,0,0.1-0.1C106,27,106,27,106,26.9c0-0.1,0-0.1,0-0.1c0-0.1,0-0.2,0-0.3c0-0.1,0-0.1,0-0.2c0-0.1-0.1-0.2-0.1-0.2
			c0,0,0,0-0.1-0.1c0,0-0.1,0-0.1,0c0,0-0.1-0.1-0.1-0.1c0,0,0,0,0,0c0,0,0,0,0,0c0,0-0.1,0-0.1-0.1c0,0,0,0-0.1,0c0,0,0,0,0,0
			c0,0,0,0,0,0c0,0,0,0,0,0c0,0,0,0,0,0c0,0,0,0,0,0c-0.1,0-0.2-0.2-0.1-0.4c0,0,0,0,0,0c0-0.1,0.2-0.1,0.3-0.1c0,0,0,0,0.1,0
			c0,0,0.1,0,0.1,0c0,0,0.1,0,0.1,0c0.1,0,0.1,0,0.2,0c0.1,0,0.1,0,0.2,0.1c0,0,0,0,0.1,0c0,0,0,0,0,0c0,0,0,0,0,0c0,0,0,0,0,0
			c0,0,0.1,0.1,0.1,0.1c0.1,0,0.2,0,0.2,0c0.1,0,0.1,0.1,0.2,0.2c0.1,0,0.1,0,0.2,0c0,0,0.1,0.1,0.1,0.1c0.1,0.1,0.1,0.1,0.2,0.1
			c0,0,0,0,0,0.1c0,0,0,0,0,0.1c0,0,0,0,0,0c0,0,0,0.1,0,0.1c0,0.1,0,0.1,0,0.2c0,0.1,0.1,0.1,0.1,0.2c0,0,0,0.1,0,0.1
			c0,0,0,0.1,0,0.1c0,0,0,0.1,0,0.1c0,0,0,0,0,0.1c0,0.1-0.1,0.1-0.2,0.2c0,0,0,0.1,0,0.1c0,0.1,0,0.1-0.1,0.1c0,0-0.1,0.1-0.1,0.1
			c-0.1,0.1-0.1,0.1-0.2,0.2c0,0,0,0.1-0.1,0.1c-0.1,0.1-0.2,0.1-0.2,0.1c0,0,0,0.1,0,0.1c0,0,0,0.1,0,0.1c0,0,0,0.1-0.1,0.1
			c0,0,0,0.1-0.1,0.1c0,0-0.1,0.1-0.1,0.1c0,0-0.1,0.1-0.1,0.1c0,0,0,0,0,0.1c0,0,0,0,0,0.1c0,0,0,0,0,0.1c0,0.1,0,0.1-0.1,0.2
			C105.7,28.9,105.6,28.9,105.5,28.9z M105,28.6C105,28.6,105,28.6,105,28.6c0.1,0,0.1,0,0.1-0.1c0,0-0.1-0.1-0.1,0
			C104.9,28.5,105,28.5,105,28.6z"/>
		<path class="st48" d="M111.3,28.3c0,0.1,0.1,0.1,0.1,0.2c0,0,0,0.1,0,0.1c0,0.1,0,0.1,0,0.1c0,0.2-0.2,0.3-0.2,0.4
			c0,0.1,0,0.1,0,0.1c0,0.1,0,0.1,0,0.2c0,0.1,0,0.1,0,0.2c0,0.1-0.1,0.1-0.1,0.3c0,0.1,0,0.2-0.1,0.3c-0.1,0.1-0.1,0.3-0.2,0.3
			c0,0-0.1,0-0.1,0c-0.1,0-0.1,0.1-0.2,0.1c-0.1,0-0.1,0-0.2,0c-0.1,0-0.2,0.2-0.3,0.2c-0.1,0-0.3-0.1-0.3-0.3c0-0.1,0-0.1,0-0.2
			c0,0,0-0.1,0-0.1c0-0.2,0.1-0.3,0.1-0.4c0,0,0-0.1,0-0.1c0-0.3,0.2-0.7,0.2-0.7c0-0.2,0.1-0.3,0.1-0.5c0.1-0.2,0-0.3,0.2-0.5
			c0,0,0.1-0.2,0.1-0.2c0,0,0-0.1,0-0.1c0-0.2,0.1-0.3,0.1-0.4c0,0,0-0.1,0-0.1c0-0.1,0.2-0.4,0.2-0.4c0,0,0-0.1,0-0.1
			c0,0,0-0.1,0-0.1c0,0,0-0.1,0-0.1c0-0.1,0.1-0.2,0.1-0.3c0,0-0.2-0.1-0.2-0.1c-0.1,0-0.1,0.1-0.2,0.1c0,0,0,0,0,0
			c-0.1,0-0.1,0.1-0.2,0.1c-0.1,0-0.1,0-0.1,0c-0.2,0-0.5,0.2-0.6,0.3c0,0,0,0,0,0c-0.2,0-0.2,0.2-0.3,0.2c0,0-0.1,0-0.1,0
			c-0.2,0-0.2,0.2-0.4,0.2c-0.1,0-0.1-0.1-0.2-0.2c-0.1,0-0.1,0-0.1,0c0,0-0.2-0.2-0.2-0.2c0-0.1,0-0.1,0-0.2
			c-0.1-0.1-0.2,0-0.2-0.1c0-0.3,0.6-0.4,0.6-0.4c0,0,0.1,0,0.1,0c0.3,0,0.5-0.2,0.6-0.2c0,0,0.1,0,0.1,0c0.2-0.1,0.1-0.2,0.3-0.2
			c0,0,0.1,0,0.1,0c0.1,0,0.2-0.2,0.4-0.2c0,0,0.1,0,0.1,0c0.1,0,0.2-0.1,0.2-0.1c0.1,0,0.3,0.1,0.4,0.1c0.3,0,0.1,0.1,0.5,0.2
			c0,0,0.1,0.1,0.1,0.2c0,0.1,0,0.2,0.1,0.2c0.1,0.1,0.2,0,0.2,0.3c0,0.1,0,0.1,0,0.2c0,0.1,0.1,0.1,0.1,0.2c0,0.1-0.1,0.2-0.1,0.2
			c0,0,0,0.1,0,0.1c0,0-0.1,0.1-0.1,0.1c0,0,0,0.1,0,0.1c0,0.1-0.1,0.1-0.1,0.2c0,0.1,0.1,0.1,0.1,0.2c0,0.1-0.2,0.5-0.1,0.4
			c0,0.1-0.1,0.1-0.1,0.2c0,0,0.1,0,0.1,0.1C111.6,28.3,111.3,28.2,111.3,28.3z"/>
		<path class="st48" d="M114.8,30.5L114.8,30.5c-0.1,0-0.1,0-0.1,0c-0.2,0-0.4,0.1-0.5,0.1c0,0,0,0-0.1,0c-0.2,0-0.4,0-0.4,0
			c-0.1,0-0.1,0-0.1-0.1c-0.1,0-0.1,0.1-0.2,0.1c0,0-0.1,0-0.1,0c-0.1,0.1,0.2,0.1-0.3,0.3c-0.1,0-0.1,0-0.2,0
			c-0.1,0-0.2-0.1-0.2-0.1c0,0-0.1,0-0.1,0c-0.1,0-0.2-0.1-0.2-0.3c0.1-0.3,0.3-0.5,0.4-0.5c0,0,0.1,0,0.1,0c0.2,0,0.9-0.1,0.5-0.1
			c0.2,0,0.2-0.1,0.5-0.1l0.1,0c0.1,0,0.2-0.1,0.3-0.1c0,0,0.1,0,0.1,0.1c0.1,0,0.1-0.1,0.2-0.1c0.1,0,0.2-0.1,0.3-0.1v-0.1
			c0-0.1,0.1-0.2,0.1-0.3c0-0.1,0,0,0-0.1c0-0.1,0-0.1,0-0.2c0,0,0-0.1,0-0.2c0-0.2,0-0.4,0-0.6c0-0.1,0-0.1,0-0.1
			c0-0.1,0.1-0.1,0.1-0.2c0-0.1-0.1-0.1-0.1-0.2c0,0-0.1-0.3-0.1-0.4c0-0.1,0-0.2,0-0.3c0-0.1-0.1-0.2-0.1-0.2
			c0-0.1,0.1-0.4,0.2-0.4c0-0.3-0.1,0-0.1-0.2c0-0.1,0.1-0.2,0.1-0.2c0-0.1-0.1-0.1-0.1-0.2c0-0.1,0.1-0.1,0.1-0.2c0,0,0-0.1,0-0.1
			c0-0.1,0.1-0.3,0.3-0.3c0.3,0,0.4,0.3,0.4,0.3v0.1c0,0.1,0,0.2,0,0.2V26c0,0.1,0,0.1,0,0.2v0.1v0v0.1c0,0.1,0,0.2,0,0.3
			c0,0.1,0.1,0.1,0.1,0.2c0,0.1-0.1,0.3-0.1,0.4c0,0.1,0.1,0.2,0.2,0.2c0,0,0.3-0.5,0.3-0.4c0-0.1,0-0.1,0.1-0.2c0,0,0.1,0,0.1-0.1
			c0.1,0,0.1-0.3,0.1-0.2c0.1-0.1,0.2-0.2,0.3-0.4c0-0.1,0.1-0.3,0.3-0.5c0.1,0,0.1-0.5,0.5-0.5c0.1,0,0.3,0,0.4,0
			c0.1,0,0.1,0.1,0.2,0.1c0.1,0,0,0,0.1,0c0.2,0,0.3,0.2,0.3,0.4c-0.1,0.3-0.4,0.4-0.3,0.3c-0.1,0-0.2,0.2-0.2,0.2
			c-0.1,0-0.1,0.1-0.2,0.1c-0.1,0.2-0.3,0.4-0.3,0.4c0,0.1,0,0.1,0,0.1c0,0.1-0.4,0.3-0.3,0.3c0,0-0.1,0-0.1,0c-0.1,0,0.1,0.2,0,0.2
			c-0.1,0.1-0.2,0.1-0.2,0.2c-0.1,0.1,0,0.2-0.2,0.3c0,0.1-0.1,0.1-0.1,0.2c-0.1,0-0.1,0-0.1,0c-0.2,0.1-0.3,0.5-0.3,0.5
			c-0.1,0.1-0.1,0.1,0,0.3c0,0.1-0.1,0.3-0.1,0.4c0,0.1,0,0.1,0,0.2c0,0.2,0,0.2,0,0.3l0,0.3c0,0.1,0,0.1,0,0.3c0,0.2-0.3,0-0.3,0.3
			C115.3,30.3,114.8,30.6,114.8,30.5L114.8,30.5z"/>
		<path class="st48" d="M120.2,26.2c0,0.1,0,0.2-0.1,0.3c0,0,0,0.1,0,0.1c0,0.1,0.1,0.2,0.1,0.2c0,0,0,0.1,0,0.1c0,0,0,0.1,0,0.1
			c0,0.1,0.1,0.1,0.1,0.2c0,0.1-0.1,0.2-0.1,0.2c0,0.1,0,0.2,0,0.3c0,0.1,0,0.1,0,0.2c0,0.1,0,0.1,0,0.2c0,0.1,0,0.1,0,0.2
			c0,0.1-0.1,0.1-0.1,0.2c0,0,0,0.1,0,0.1c0,0.1-0.1,0.2-0.1,0.3c0,0.1,0,0.2,0,0.2c0,0.1-0.1,0.1-0.1,0.2c0,0.1,0,0.1,0,0.1
			c0,0.1-0.1,0.1-0.1,0.1c0,0.1,0,0.2,0,0.2c0,0.1,0,0.2,0,0.3c0,0.1,0,0.2,0,0.3c0,0-0.1,0.1-0.1,0.1c-0.1,0-0.1,0-0.1,0
			c-0.1,0-0.1,0.1-0.2,0.1c-0.1,0-0.1,0-0.1,0c0,0-0.1,0-0.1,0c0,0-0.1,0-0.1,0c0,0-0.1,0-0.1,0c0,0-0.1-0.1-0.1-0.1
			c-0.1,0-0.1,0-0.2,0c0-0.1,0.1-0.1,0.1-0.2c0-0.1,0-0.1,0-0.2c0-0.1,0.1-0.1,0.1-0.2c0,0,0-0.1,0-0.1c0-0.1,0.1-0.1,0.1-0.1
			c0-0.1,0-0.1,0-0.2c0,0,0-0.1,0-0.1c0-0.1,0-0.1,0.1-0.2c0,0,0-0.1,0-0.1c0,0,0-0.1,0-0.1c0-0.2,0-0.3,0-0.4c0-0.1,0-0.1,0-0.2
			c0-0.1,0.1-0.1,0.1-0.2c0-0.1,0-0.1,0-0.2c0-0.1,0.1-0.1,0.1-0.1c0,0,0-0.1,0-0.2c0-0.1,0.1-0.1,0.1-0.1c0,0,0-0.1,0-0.1
			c0-0.1,0.1-0.2,0.1-0.2c0-0.1,0-0.1,0-0.2c0-0.1-0.1-0.1-0.1-0.2c0,0,0-0.1,0-0.2c0-0.2-0.1-0.3,0-0.4c0,0,0,0,0.1-0.1
			c0-0.1,0-0.1,0-0.2c0,0,0.1-0.1,0.1-0.1c0-0.1-0.1-0.2-0.1-0.2c0-0.1,0.1-0.2,0.2-0.3c0,0,0.1,0,0.1,0c0.1,0,0.1-0.1,0.1-0.1
			c0,0,0.1,0,0.2,0c0.1,0,0.1-0.1,0.2-0.1c0,0,0.1,0,0.1,0c0.1,0,0.1,0,0.2,0c0.1,0,0.2,0,0.2,0c0,0,0.1,0.1,0.1,0.2
			c0,0.1-0.1,0.1-0.1,0.2c0,0,0,0.1,0,0.2c0,0.1,0,0.2-0.1,0.2c0,0,0,0,0,0c0,0-0.1,0-0.1,0.1C120.1,26.2,120.1,26.2,120.2,26.2z"/>
		<path class="st48" d="M124.9,25.4c0.2,0,0.3,0,0.4,0c0.2,0.1,0.1,0.1,0.3,0.1c0.1,0,0.2,0.1,0.2,0.1c0.1,0,0.3,0.1,0.4,0.2
			c0,0,0,0.1,0.1,0.2c0.1,0.1,0.3,0,0.4,0.5c0,0.1,0.1,0.2,0.1,0.3c0,0.1,0,0.2,0,0.2c0,0.1,0.1,0.2,0.1,0.2c0,0.1-0.1,0.1-0.1,0.2
			c0,0.1,0.1,0.2,0.1,0.2c0,0.1-0.1,0.2-0.1,0.3c0,0.2,0.1,0.2,0,0.3c0,0.1,0,0.1,0,0.2c0,0.1-0.2,0.3-0.2,0.5c0,0.1,0,0.2,0,0.3
			c0,0.1-0.1,0.2-0.2,0.2c0,0.1,0,0.2-0.1,0.2c-0.1,0-0.1,0-0.1,0c-0.2,0.1,0,0.4-0.2,0.5c-0.1,0.1-0.2,0.1-0.5,0.2
			c-0.1,0.1-0.2,0.1-0.3,0.1c-0.2,0-0.2,0.1-0.4,0.2c0,0-0.1,0-0.1,0c-0.1,0-0.2-0.1-0.3-0.1c-0.2,0-0.3,0.1-0.4,0.1
			c-0.1,0-0.2,0-0.3,0c-0.1,0-0.1-0.1-0.3-0.1c-0.1,0-0.1,0.1-0.2,0.1c-0.1,0-0.2-0.1-0.2-0.2c0-0.1,0.1-0.1,0.2-0.2
			c0-0.1,0-0.3,0.3-0.3c0.1,0,0.2,0.1,0.4,0.1c0.1,0,0.2,0,0.3,0c0.1,0,0.2,0.1,0.3,0.1c0.7,0,1.2-0.5,1.2-0.7c0,0,0-0.1,0-0.1
			c0-0.1,0-0.1,0.1-0.2c0.1,0,0.1,0.2,0.2,0.2c0,0,0.1-0.1,0.1-0.2c0-0.1,0-0.2,0-0.2c0-0.1-0.1-0.2-0.1-0.3c0-0.2,0-0.4,0-0.6
			c0-0.1,0.1-0.1,0.1-0.2c0-0.1-0.1-0.2-0.1-0.3c0-0.2,0-0.4,0-0.5c0-0.2-0.4-0.8-0.6-0.8c0,0-0.1,0-0.1,0c-0.1,0-0.1-0.1-0.4-0.1
			c-0.2,0-0.4,0.2-0.6,0.2c0,0-0.1,0-0.1,0c-0.2,0-0.1,0.2-0.2,0.2c-0.1,0-0.1,0-0.2,0c-0.1,0-0.1,0.2-0.1,0.2
			c0,0.3-0.2,0.4-0.2,0.6c0,0.3-0.1,0.3-0.2,0.4c0,0.1,0.1,0.1,0.1,0.2c0,0.1-0.1,0.3-0.1,0.3c-0.1,0-0.2-0.2-0.2,0
			c0,0.1,0,0.1,0,0.2c0,0.1-0.2,0.3-0.2,0.4c0,0.1,0.1,0.1,0.1,0.2c-0.1,0.2-0.2-0.1-0.3,0.4c-0.1,0.3-0.2,0.4-0.2,0.6
			c0,0,0,0.1,0,0.1c0,0.1-0.2,0-0.2,0.2c0,0.1,0.1,0.1,0.1,0.2c0,0.1-0.1,0.1-0.1,0.2c0,0.1,0.1,0.1,0.1,0.2c0,0.1-0.2,0.1-0.2,0.2
			c0,0.1,0,0.1,0,0.2c0,0,0,0.1-0.1,0.1c-0.2,0-0.2,0-0.3-0.1c-0.1,0-0.1,0.1-0.2,0.1c-0.1,0-0.2,0-0.2,0c-0.1,0-0.2,0-0.2-0.1
			c0-0.3,0.2-0.5,0.2-0.6c0,0,0.2-0.6,0.2-0.5c0.1-0.1,0.1-0.2,0.1-0.4c0-0.1,0.2-0.3,0.2-0.4c0.1-0.1,0.1-0.6,0.2-0.7
			c0.2-0.4,0.1-0.2,0.2-0.4c0.1-0.1,0.2-0.1,0.2-0.4c0-0.3-0.3-0.3-0.5-0.5c-0.1-0.3-0.2,0-0.3-0.6c-0.1-0.1-0.1-0.2-0.2-0.4
			c0-0.1,0-0.2-0.2-0.4c-0.1-0.1-0.1-0.1-0.1-0.2c0-0.1,0.2-0.2,0.3-0.2c0.4,0,0.8,0.5,0.8,0.5c0,0.1,0,0.2,0,0.2
			c0,0.2,0.3,0.3,0.3,0.6c0,0,0,0.1,0,0.2c0,0,0.1,0.1,0.1,0.1c0.2,0,0.3-0.4,0.4-0.4c0.1-0.1,0.2-0.2,0.2-0.2c0,0,0-0.3,0.2-0.3
			c0,0,0.1-0.3,0.1-0.3c0-0.1,0.2-0.3,0.4-0.3c0.1,0,0.1,0.1,0.2,0.2C124.3,25.3,124.6,25.4,124.9,25.4z"/>
	</g>
</g>
</svg>
